<svg
  xmlns="http://www.w3.org/2000/svg"
  width="20"
  height="20"
  viewBox="0 0 20 20"
  fill="none"
  stroke="currentColor"
>
  <path
    stroke-linecap="round"
    stroke-width="1.5"
    d="M13.3333 18.8889C12.4517 18.2251 10.7916 17.7778 8.88884 17.7778M8.88884 17.7778C6.98611 17.7778 5.32595 18.2251 4.4444 18.8889M8.88884 17.7778V11.1111M2.22177 5.60926C6.05515 5.99089 8.45353 8.38927 8.83517 12.2227C8.89595 12.8332 8.38878 13.3405 7.77814 13.2797C3.94475 12.898 1.54638 10.4997 1.16474 6.66628C1.10395 6.05565 1.61113 5.54847 2.22177 5.60926ZM17.7783 1.15232C12.5581 1.54836 9.32607 4.78035 8.93003 10.0006C8.88362 10.6125 9.38747 11.1164 9.99937 11.0699C15.2196 10.6739 18.4516 7.44192 18.8476 2.22166C18.8941 1.60976 18.3902 1.10591 17.7783 1.15232Z"
  />
</svg>
