<svg xmlns="http://www.w3.org/2000/svg" width="24" height="24" fill="none" viewBox="0 0 24 24">
  <path
    fill="#2E98F1"
    d="M12 24C18.6274 24 24 18.6274 24 12C24 5.37258 18.6274 0 12 0C5.37258 0 0 5.37258 0 12C0 18.6274 5.37258 24 12 24Z"
  />
  <path
    fill="#fff"
    d="M16.8419 17.2216C15.8697 18.8922 14.0665 20 11.9999 20C9.93326 20 8.13006 18.8922 7.17224 17.2483L7.1579 17.2216C6.68137 16.4247 6.3999 15.4663 6.3999 14.4434C6.3999 13.4206 6.68137 12.4622 7.17235 11.639L7.15789 11.6653L11.4165 4.3347C11.5337 4.13344 11.7509 4 11.9999 4C12.2489 4 12.4661 4.13344 12.5815 4.33149L12.5833 4.3347L16.8419 11.6653C17.3185 12.4622 17.5999 13.4206 17.5999 14.4434C17.5999 15.4663 17.3185 16.4247 16.8274 17.2478L16.8419 17.2216ZM13.1996 7.8222L12.2916 6.2592C12.233 6.15858 12.1244 6.09184 11.9999 6.09184C11.8754 6.09184 11.7668 6.15856 11.7091 6.25759L11.7082 6.2592L8.2151 12.272C7.84287 12.8942 7.62299 13.6426 7.62299 14.4414C7.62299 14.9366 7.70748 15.4123 7.86307 15.8556L7.85377 15.8251C7.90365 15.599 7.96517 15.4039 8.04158 15.2162L8.03246 15.2417C8.51494 14.0315 9.6059 13.0977 11.2757 12.466C12.4237 12.0332 13.1565 11.3967 13.4542 10.574C13.8377 9.51392 13.4372 8.35768 13.1996 7.8222ZM14.7478 10.4874L14.7435 10.5116C14.7076 10.6784 14.6603 10.841 14.6108 10.9727C14.1889 12.1484 13.2138 13.0318 11.7128 13.5977C10.3848 14.1004 9.53174 14.7984 9.17742 15.6727L9.1843 15.652C9.06158 15.977 8.99454 16.3286 8.99454 16.6956C8.99454 17.0892 9.07166 17.4651 9.20454 17.7893L9.19798 17.784C9.95446 18.4097 10.9313 18.7867 11.9977 18.7867C13.6137 18.7867 15.0237 17.921 15.7847 16.6153L15.7734 16.6358C16.1572 15.9923 16.3773 15.2432 16.3773 14.4436C16.3773 13.6441 16.1572 12.895 15.7847 12.272L14.7478 10.4874Z"
  />
</svg>
