<svg xmlns="http://www.w3.org/2000/svg" width="32" height="32" fill="none"><circle cx="16" cy="16" r="16" fill="#6FDA44"/><path fill="#fff" d="M23.879 20.365c-1.242 0-2.405-.55-3.463-1.443l.258-1.262.01-.046c.23-1.344.958-3.6 3.195-3.6 1.677 0 3.042 1.427 3.042 3.178-.005 1.747-1.37 3.173-3.042 3.173m0-9.571c-2.858 0-5.074 1.94-5.974 5.13C16.53 13.768 15.49 11.18 14.88 9h-3.075v8.36c0 1.649-1.286 2.992-2.864 2.992-1.578 0-2.864-1.343-2.864-2.991V9H3v8.36c-.011 3.425 2.657 6.236 5.935 6.236 3.277 0 5.945-2.81 5.945-6.235v-1.403c.599 1.303 1.33 2.617 2.22 3.787L15.217 29h3.15l1.364-6.713c1.197.8 2.573 1.302 4.151 1.302 3.373 0 6.119-2.887 6.119-6.41-.003-3.516-2.748-6.385-6.121-6.385"/></svg>