<svg xmlns="http://www.w3.org/2000/svg" viewBox="0 0 490 650"><g data-name="Layer 10"><path fill="#995db5" d="M484.05 559.81c-.79-9.57-1.87-19.11-2.81-28.67-.48-5-.93-9.95-1.29-14.93-.1-1.27-.18-2.54-.27-3.81a6.12 6.12 0 0 0-.08-1.87 22 22 0 0 0 .87-6.55c-.21-12.54-13.82-11-22.71-11.19q-15.31-.27-30.62-.41-14.17-.12-28.36-.12a221.14 221.14 0 0 0-33.85.16 15 15 0 0 0-9.09 4.21c-24.59-2.12-49.1-4.5-73.78-5.08-50.18-1.17-100.28 2.53-150.43 3.27q-41.94.62-83.81-2.2c-2.44-.17-4.93.93-7.21 2.78q-8.16-1.11-16.26-2.87c-4.6-1-9.67 4.46-11.82 7.57a20.25 20.25 0 0 0-3.75 15.09 160.07 160.07 0 0 1 1.56 40.25c-.32 3.41.13 7.55 2.34 9.67a15.3 15.3 0 0 0-.89 4.82c.07 2.73 0 5.46-.11 8.18-.45.8-.72 1.2 0 .25v.15c-3.26 5.15-6.68 13.67-1.76 18.22-1 8.13-2.15 16.25-2.64 24.41-.23 3.74 1.94 7.05 5.65 7.72 52.29 9.4 105.65-3.5 158.28-1.38 28.39 1.15 56.64 3.89 85.06 4.08 28.21.19 56.41-1 84.6-1.84q9.76-.3 19.55-.51a129.06 129.06 0 0 0 28.91 3.49c15.95.14 31.87-1.62 47.82-2.07a12.93 12.93 0 0 0 7.43-2.74q11 1.68 22 3.93c7.85 1.61 14.61-10.58 15.68-16.4 3.37-18.42 3.32-37.03 1.79-55.61M42.68 579.94c0-.73-.06-1.47-.11-2.21 1.16.12 2.32.2 3.49.24-1.16.62-2.28 1.28-3.38 1.97m98.14 2.23a1.57 1.57 0 0 0 .09.23l-3.53.12Zm322.57 16.35c0 1.1-.06 2.19-.11 3.29-1.13-.2-2.26-.39-3.4-.57a28.87 28.87 0 0 0 3.51-2.72m-11.47-78.23c-7.2.9-14.42 1.44-21.65 1.67a19.16 19.16 0 0 0 2-2l5.32.07 13.83.23a5 5 0 0 0 .5.03"/><path d="M473.33 493.23a442.87 442.87 0 0 0-48.33 1.32c-1.43.12-2.83 1.38-3.86 2.95l-6.19-.21q-30.42-.94-60.87-1.69-60.87-1.5-121.76-2.19-61.4-.69-122.79-.57-30.45.07-60.89.33l-14 .13c-4.19.05-8.91-.47-13 .73-6.07 1.77-9.77 7.64-10.85 13.6-1.46 8 1.21 16 2.07 24 1.12 10.32.85 20.74.26 31.08-1.21 21.12-3.56 42.21.51 63.18.48 2.47 3.33 1.6 4.67.52a7.36 7.36 0 0 0 2.61-6.79c-3.44-17.75-1.89-35.85-.69-53.75 1.16-17.32 1-33.79-1.73-50.93-.45-2.85-1.05-6.32-.34-9.16.93-3.75 5.71-2.78 8.88-2.81q14.48-.15 29-.26 28.93-.22 57.89-.25 116.31-.13 232.58 2.66 32.43.79 64.86 1.8c19.81.62 40.14 2 59.3-4.14 2.54-.84 7.64-9.41 2.67-9.55" opacity=".2"/><path fill="#995db5" d="M479.37 409.32c-2.26-2.64-1.21-7.6-1.68-11.51-.8-6.65-1.47-13.31-1.78-20a221.22 221.22 0 0 1 1.52-38.68 15 15 0 0 0-.38-6.48 44.38 44.38 0 0 0 2.37-11c.59-5.85 1.66-14.06-2.95-18.24.13-.27.26-.54.37-.83 4.54-10.89 3.28-28.69-11.89-28.52s-30.2-.92-45.24-1.41-29.84-1-44.75-1.45c-16.79-.49-33.6-.75-50.39 0s-33.51 2.14-50.32 2c-7 0-12.42 6.8-14.67 12.83-1.09 2.92-2 9.13.15 12.44a24.83 24.83 0 0 0-2 10.17q.15 3 .44 5.91c-.22.68-.43 1.36-.61 2-1.86 7-1 14.92 3.08 20.92-3.94 5-6.13 12.11-4.62 16.82q1.37 4.25 2.29 8.51a21.19 21.19 0 0 0-1.62 7.69q-.35 21.68-.14 43.36c.06 5.74-1.13 14.14 3.91 18.22 5.23 4.24 14.28.91 20.31.07q15.48-2.15 31.09-3c17.23 1 35.21 3.13 52.33.68 8.12 1 16.23 2.13 24.39 2.83 13.13 1.11 26.09-.29 39.19-1.1 12.59-.78 24.66 1.13 37.09 2.82 9.54 1.29 21.03-17.48 14.51-25.05M455 358.13c-2.73-.21-5.45-.16-7.49-.24-1.3-.05-2.6-.06-3.89-.07l11.52-1.41c-.14.59-.14 1.15-.14 1.72m2.83-28.41c.07-.42.15-.87.26-1.34h.06c0 .44 0 .87-.06 1.32Zm6.14-8.61a6.34 6.34 0 0 1 2.37.27 14.19 14.19 0 0 0-2.41-.27Zm-.14-28.36c1.8 0-4.37 1.56-2.72 1.08a22 22 0 0 1-4 .67c.55-.96 2.32-1.64 6.68-1.75Z"/><path d="M473.49 274.73a477.66 477.66 0 0 0-75.74-1.06c-12.28.82-24.56 2.18-36.89 1.72s-24.42-2.89-36.73-2.69c-5.59.08-11 1.09-16.49 1.82-6.17.82-11.48-.7-17.53-1.43-5.71-.69-11.45-.16-17.13.49-5.09.58-9.39 1.32-12.05 6.17-2 3.72-1.83 7.69-1.44 11.76.62 6.54 1.18 13.08 1.58 19.63q1.15 18.67 1 37.4-.21 21.07-2.11 42.09c-1.24 13.37-2.63 26.12.76 39.32C262 435 269 427.5 268 423.69c-3-11.73-1.8-23-.69-34.93 1-10.84 1.72-21.72 2.07-32.61a536.32 536.32 0 0 0-2.3-68.84 18.09 18.09 0 0 0-.3-3.21v-.44c1.62.45 6.25-.85 7.81-1a67.77 67.77 0 0 1 18.15 1.11c10.31 1.84 20.33-1.64 30.7-1.48 11.66.18 23.17 2.38 34.81 2.73 11 .34 22-.76 33-1.55a481 481 0 0 1 75.53.59 2 2 0 0 0 2.31.61l1.75-.43c2.81-.68 7.49-9.06 2.65-9.51" opacity=".2"/><path fill="#995db5" d="M224.52 349.6c-.54-11.73-.1-23.47.47-35.19.28-5.87.61-11.74.86-17.61.24-5.57.76-11.38-1.46-16.63-2.06-4.91-5.92-7.22-11.11-8-6.31-.9-12.9-.93-19.26-1.29-11.84-.69-23.71-1.1-35.56-.68-11.56.41-23.05 2-34.62 2.28-12.13.3-24.35-.18-36.47-.82-13.22-.66-26.37-1.81-39.67-1.37A179.87 179.87 0 0 0 27.9 272a64.24 64.24 0 0 0-9.9 1.9c-5.34 1.65-8.28 5.46-11.35 9.93-2.17 3.16-3.95 9.07-2.7 13.38a41 41 0 0 0-1.87 14.38c.46 25.44 3.06 50.77 4.36 76.17 0 .57 0 1.13.07 1.7a16 16 0 0 0 .2 4.49c.16 3.8.3 7.59.38 11.39.13 6.4-1 13.79.93 20 2.13 6.92 8.75 6.92 14.81 7.35q9.93.71 19.89 1.13c29.19 1.31 58.42 1.21 87.62 1.93 27.26.68 55.85 4.8 82.61-2.1 7.17-1.85 11.34-9.63 13.06-16.16 5.99-22.72-.44-45.09-1.49-67.89M25.85 337.84a2.79 2.79 0 0 1 .86.16ZM202 352.1l.63-.41v.52ZM27.54 367.05c1.05.08 2.1.16 3.15.21l-1 .12c-.73.1-1.45.22-2.15.35.03-.23.01-.45 0-.68m169.85 21.21c1.87-2.1 2.07-.5 0 0m9.32 17.89.39-.47q0 1.53-.09 3.06c-1.1.15-2.19.28-3.29.4a26.38 26.38 0 0 0 2.99-2.99"/><path d="M219.43 275.26c-24.45.79-48.9.56-73.36.42s-48.92.58-73.4 1a295.15 295.15 0 0 1-36.17-1.43c-8.48-.89-22.78-3.44-27.67 5.86-2.16 4.11-1.68 9-1.74 13.53l-.27 19.71q-.25 18.74-.52 37.46-.27 20.7-.56 41.4c-.17 12.29-.46 24.5 4.84 35.88 1.8 3.87 8.25-4.21 6.51-7.93-4.52-9.71-3.94-20.73-3.8-31.17q.24-16.75.46-33.51.46-34 .94-68a21.15 21.15 0 0 1 0-3.81 4.53 4.53 0 0 1 .47-.05c2.81-.13 5.52-.59 8.36-.51 5.65.16 11.26 1 16.89 1.5a318.24 318.24 0 0 0 33.41.58c22.25-.55 44.45-1 66.71-.91 25.09.13 50.19.4 75.27-.41 4.11-.13 8.06-9.75 3.63-9.61m-204.75 9.42c-.36.7-1.06.18 0 0" opacity=".2"/><path fill="#995db5" d="M481.15 189c-2.82-7.76-1.62-15.76-1.1-23.82a105.45 105.45 0 0 0-1.6-25.94 29 29 0 0 0-2.58-8.76c4.53-5.15 7.93-13.66 4.24-19.68a30.67 30.67 0 0 1-4.23-10.92 26.8 26.8 0 0 1-.28-5.66v-.72c0-.14.05-.36.1-.7s.63-3.24.23-1.86c.93-3.23 2.07-8.11.33-11.43a31.69 31.69 0 0 0 .55-6.38c.08-.16.17-.32.24-.48 1.9-4 4.38-13.08-1.15-15.69A41.4 41.4 0 0 0 461.64 53c-2.62-.22-5.31 1-7.73 2.9l-180.73-2.7c-7-.11-12.44 6.84-14.67 12.83-1.09 2.94-2 9 .11 12.36a17 17 0 0 0-.74 5.46 449.66 449.66 0 0 1-.52 48.57 7.4 7.4 0 0 0 1.21 4.83 35.61 35.61 0 0 0-2.27 9c-1.1 9.61 1.64 19.68 2.43 29.29.86 10.47 1.33 21 2.28 31.44.31 3.45 1.52 7.39 5.66 7.72 33.27 2.63 66.56 2.18 99.91 1.91 16.3-.13 32.61 0 48.9-.87 16.72-.88 33.42-2.67 50.1-4.1 5.2-.45 8.84-3.27 11.82-7.58 2.68-3.89 5.51-10.25 3.75-15.06m-203.72-49.59c0-.14 0-.12 0 0"/><path d="M475.49 57.17a2.48 2.48 0 0 0-2.31-1.42 3.86 3.86 0 0 0-3.1 1.33c-4.54 0-9.23-.69-13.69-.92-6.56-.35-13.12-.63-19.69-.88q-18.7-.69-37.42-.94c-25-.36-49.93-.23-74.9 0-12 .13-24.09.59-36.12.37-8.21-.16-20.41-4.27-25.66 4.42-2.46 4.07-2.34 9.46-2.87 14.06-.68 5.83-1.3 11.66-1.8 17.51a223.18 223.18 0 0 0-.61 36.56c.52 6.76 2 13.48 2.21 20.26.21 6.45-.94 12.86-1.19 19.29-.53 14.08 1.25 28.35 2.21 42.38.43 6.2 7.85-.17 7.57-4.2-.79-11.49-1.87-23-2.21-34.52s2-22.86.51-34.36c-3-23.1-1.62-45.56 1.12-68.63.14-1.16 0-2.79.46-3.83v-.12c.2.2.73.13 1.63-.23a52.83 52.83 0 0 0 6.42.6c5.72.49 11.47.48 17.2.41 11.8-.13 23.6-.33 35.4-.44 23.32-.22 46.64-.29 70 .08 13.14.21 26.27.55 39.39 1.09q9.84.4 19.68 1c4.86.27 11.57 2.2 15.57-1.24 2.06-1.8 3.46-5.02 2.2-7.63m-6 8.13h.16-.05Z" opacity=".2"/><path fill="#995db5" d="M229 131.78c1.3-22.67-2.41-45.24-4.94-67.72 0-.37-.09-.72-.16-1.06-.35-3.27-2-6.15-5.64-7-15.9-4-32.16-2.78-48.32-1.43a324 324 0 0 1-50 .19c-16.46-1.13-32.77.23-49.23.41a483.23 483.23 0 0 1-51.47-2.25C13 52.27 7.71 59 5.39 63.9c-1.34 2.84-3.3 9.39-1.48 13.21a18.63 18.63 0 0 0-1.36 7.48c.47 11.62.27 23-.23 34.64-.47 10.82.58 21.64.53 32.46 0 11.21-.36 22.4 1.07 33.55.37 2.83.77 5.66 1.33 8.47.18.93.44 1.87.64 2.8 0 .23.1 1 .1 1.19.11 4.5.79 9.38 3.92 12.84 6.08 6.71 15.56 7.07 24 7.17 10.5.12 21 .29 31.49.12 22.87-.4 45.72-1.7 68.58-2.5 26.06-.9 52.16-1.07 78.15 1.43 8 .77 14.54-9.83 15.67-16.39 2-11.76 1.37-23.41.65-35.24-.69-11.13-.08-22.13.55-33.35m-197.69-11c-1.55.34-.6-.72 0 0m174-9.65c.38-.21.75-.44 1.12-.69 0 .3 0 .6.08.89Zm-4.91-29.08c0 .56-.06 1.13-.08 1.7l-.43-.1c.15-.59.27-1.18.37-1.77h.15a.76.76 0 0 0-.01.17"/><path d="M219.46 58.1a322.45 322.45 0 0 0-41.31-5.05c-11.62-.58-23.3.47-34.9 1l-41.32 2c-13.09.62-26.55 2.12-39.62.57-12.19-1.47-23.31-5.28-35.75-2.89-4.63.9-10.2 2.2-14 5.2-4.31 3.44-4.89 8.56-5.26 13.69-1 13.84-1.58 27.73-1.89 41.61a913.48 913.48 0 0 0 2.71 93.15c.49 6.2 7.89-.17 7.57-4.21q-3.07-38.55-2.93-77.28.11-19.83 1.06-39.66c.29-5.93.86-11.88 1-17.82.05-.66.09-1.32.14-2l-.25-.16c.41-.79 4.17-1.61 5-1.87a48.86 48.86 0 0 1 8.39-1.75c11.91-1.39 23.31 3.24 35.1 3.95 12.28.75 24.74-.48 37-1.06l38.38-1.81c11-.53 22.17-1.56 33.23-1.19a303.84 303.84 0 0 1 44 5.17c4 .74 8.34-8.69 3.65-9.59" opacity=".2"/><path fill="#1e1e1e" d="M226.06 73c-.11-5.84.95-12.36-4.46-16.13-2.12-1.47-4.31-1.48-6.81-1.64-10.34-.68-20.75-.67-31.1-.78-32.65-.35-65.31-.21-98 0-20.53.11-41.09 0-61.62.41-6.86.13-16.69-1.44-18.22 7.41a.54.54 0 0 0 0 .22c-.68 7.37-.2 15-.25 22.42q-.18 23.63-.3 47.26c-.13 22.65-.92 45.42-.34 68.08.09 3.63.27 8.18 2.11 11.42 1.39 2.46 3.28 2.72 5.89 3a148.44 148.44 0 0 0 17.76.87h24.86q48.44.08 96.86.14h41.65c7.37 0 15.08.54 22.42-.38 3.53-.44 7.57-1.19 8.49-5.08 1-4.36.72-9.72.86-14.14.07-2.26 0-4.54 0-6.8v-39.67c.14-25.55.67-51.13.2-76.61m-2.4 123.11c-.12 3.32-.52 6.63-.63 9.95-.09 2.89.48 4.71-3 6.28-2.9 1.31-6.73 1.05-9.88 1.09h-41.58l-94.53-.13c-19.7 0-40 1.21-59.64-.72-2.28-.23-4 0-5.41-2.06S7.5 205 7.31 202.6c-.08-1.05-.11-2.09-.13-3.14-.05-3.1 0-6.19 0-9.29V151c0-27.56-.1-55.12 0-82.68 0-1.86-.09-3.77 0-5.62v-.05c1.31-6.7 7.46-5.71 12.7-5.86 4.66-.14 9.3-.07 14-.07h5.24l30-.17c31.38-.17 62.76-.28 94.15-.13 12.83.07 25.67.15 38.5.46 6 .14 17.52-1.62 21 4.25 1.65 2.76 1 8.41 1.05 11.52v13.98q-.06 21.39-.1 42.78c.06 22.11.7 44.45-.06 66.65ZM477.91 67.42c0-3.4.47-7.81-1.35-10.86-1.5-2.5-3.88-2.45-6.52-2.69-6-.56-11.93-.76-17.9-.74h-25.43L328 53h-52.24c-4.52 0-9.69-.61-13.87 1.2-3.37 1.45-3.16 4.38-3.27 7.62s-.52 6.58-.6 9.87 0 6.31 0 9.46q0 21.3-.05 42.59c0 24.11.11 48.23-.1 72.34 0 3.86-1.26 14.71 3.08 16.92 1.4.71 3.89.4 5.39.46 10.37.4 20.76.42 31.13.5 32.9.27 65.8.25 98.7.2 19.92 0 39.84-.1 59.75-.13 6.91 0 19.79 2.25 21.62-7a.87.87 0 0 0 0-.28c.7-7.34.14-15 .17-22.36q.09-24 .13-48c.03-23 .16-45.99.07-68.97m-16.43 144.66c-3.89.09-7.78 0-11.67 0h-36.69q-47.33 0-94.64-.13c-13.23-.06-26.45-.14-39.67-.35-4.1-.07-8.2-.13-12.3-.29-1.47-.06-4.06.28-5-.69-2.33-2.32-1.57-9.46-1.56-12.52v-12.86l.09-40.74c.06-24.28-.54-48.67.19-72.95.1-3.27.5-6.53.62-9.8.09-2.86-.21-4.83 3-5.9 2.78-.93 6.29-.62 9.19-.64h38.16l96.32.13c20.2 0 40.75-1 60.91.61 1.38.11 3.86-.11 5.07.6 2.49 1.44 2.07 6 2.1 8.42v12.35l.18 39.74c.12 28 .32 56 .26 84 0 1.81.11 3.68 0 5.49-1.43 6.84-9.3 5.45-14.56 5.53"/><path fill="#7f3f98" d="M28.5 24.1a.7.7 0 0 0 .47-.82l-.09-.65a1.27 1.27 0 0 0-.91-.91c-2.68-.38-4.38 1.14-4.79 3.81a17.21 17.21 0 0 0-.17 2.6 3.83 3.83 0 0 0-2.51 1 .5.5 0 0 0 0 .71 3.86 3.86 0 0 0 2.57.65c.05.92.09 1.83.1 2.71 0 2.91-.12 5.87.19 8.76a1 1 0 0 0 2.08 0c.39-3.36.22-6.83.28-10.22v-1.19a5.68 5.68 0 0 0 2-.23 1.4 1.4 0 0 0 .83-2l-.06-.1a1.42 1.42 0 0 0-2-.38 5.7 5.7 0 0 1-.74.14c.13-1.8.72-3.37 2.75-3.88m3.35-1.77c-.94 6.34-.46 13.26-.28 19.65a1.33 1.33 0 0 0 2.66 0c.13-6.39.55-13.32-.44-19.65a1 1 0 0 0-1.94 0m18 15.11c2.29.06 2.92-1.62 2.45-3.61-1.08-4.63-5.75-8.22-10.39-5.61-4.42 2.49-4.72 8.76-2.1 12.71a6.33 6.33 0 0 0 5.84 2.54c2-.13 4.6-.54 4.89-2.83a1.26 1.26 0 0 0-2.33-.64c-.6 1.43-4.22.9-5.21.34-1.36-.78-1.85-2.43-2.1-3.93 1.31.06 2.62.1 3.92.23 1.67.17 3.36.76 5.03.8m-9-3.23c.43-2.5 2.41-4.61 5.25-4a4.6 4.6 0 0 1 3.39 3.54c.13.87.41.74-.6.91a7.61 7.61 0 0 1-1.74-.25 28.87 28.87 0 0 0-6.29-.2Zm26.7 7.35a29.66 29.66 0 0 0-4.6-6c1.4-2.08 3.34-4.28 3.89-6.63a1 1 0 0 0-1.39-1.07c-2 .87-3.44 3.19-4.63 5.2a31.13 31.13 0 0 0-5.1-5.34c-.77-.58-1.63.51-1.23 1.23a41.22 41.22 0 0 0 4.9 6.39 35 35 0 0 0-4 6.81c-.51 1.37 1.3 2 2.21 1.28 1.66-1.32 2.81-3.42 3.9-5.38A27.18 27.18 0 0 0 65.67 43a1.21 1.21 0 0 0 1.88-1.44M69.51 37c1.46.46 3.29.11 4.81 0a1.54 1.54 0 0 0 1.47-1.12 1.52 1.52 0 0 0 0-.82A1.59 1.59 0 0 0 73.91 34c-1.51.21-3.32.23-4.67 1a1.12 1.12 0 0 0 .27 2M90 29.42c-1.91-4-10.74-2.05-10.19 2.72.28 2.37 2.41 3.67 4.48 4.33.78.24 1.59.38 2.36.64 1.61.55 3.22 2.5 1.23 3.5-2.3 1.16-4.28.5-6.25-.91-1.21-.87-2.42 1-1.52 2a6.51 6.51 0 0 0 6.74 1.77c1.92-.54 4.45-1.76 4.62-4 .17-2.43-2.25-3.78-4.24-4.42-.77-.25-1.58-.38-2.36-.64l-1.23-.5c-1.33-.5-1.54-1.21-.62-2.12 1-1.93 3.81-1.86 5.68-1a1 1 0 0 0 1.3-1.37m10 12c-1.77.78-2-10-2-11v-.1a5.63 5.63 0 0 0 2.69-.42 1.31 1.31 0 0 0 0-2.24 4.94 4.94 0 0 0-2.69-.32 4.16 4.16 0 0 0-1.41-3.46.27.27 0 0 0-.31 0c-1.32 1-1.48 2.32-1.43 3.79a14.46 14.46 0 0 0-1.46.28 1.3 1.3 0 0 0 .34 2.54h1.24a59.86 59.86 0 0 0 .89 9.51c.49 2.56 3.31 6.17 5.61 2.91.69-1-.61-1.91-1.47-1.49m17 .33q-.18-4.47-.35-8.94c-.09-2.05 0-3.83-1.69-5.25-2.86-2.42-8.61-.54-10.21 2.61a.85.85 0 0 0 1 1.21c2.74-.74 7.32-4.63 8 .41a35.43 35.43 0 0 1 .28 3.6 7 7 0 0 0-1.76-.93c-1.56-.63-3.15-1.48-4.88-1.31-2.93.28-4.18 3.25-3.91 5.9.54 5.35 7 5.89 10.71 3.23.36 1.66 3.1 1.13 2.81-.53m-6.35-.75c-2.44.77-4.83-.15-4.61-3 .2-2.59 2.14-2.32 4.09-1.82 1.27.33 2.65.4 3.91.78v1.78a7.56 7.56 0 0 1-3.39 2.26m15.54-12.65a5.78 5.78 0 0 0-3.86 1.65c-.14.13-.26.25-.38.38a3.25 3.25 0 0 0-1.31-2 .31.31 0 0 0-.36.06c-1.59 1.43-.8 4.23-.69 6.17.16 2.69 0 5.88 1 8.4.4 1 2 1.21 2.29 0 .59-2.8-.15-6.11-.49-8.95 0-.17 0-.34-.05-.52a6.81 6.81 0 0 1 1.58-1.63 5.56 5.56 0 0 1 2.66-.78c1.6-.35 1.06-2.67-.39-2.78m10.88 12.28c-1.8 1.89-2.28-3.33-2.33-3.84-.16-1.61-.24-3.23-.31-4.84v-1.24a5.2 5.2 0 0 0 2.73-.31 1.25 1.25 0 0 0 0-2.15 4.62 4.62 0 0 0-2.82-.44 33.49 33.49 0 0 0-.32-3.74c-.16-1-1.75-.94-2 0a23.79 23.79 0 0 0-.47 4 11.71 11.71 0 0 0-1.18.23 1.21 1.21 0 0 0 .32 2.37h.83c0 1.13.07 2.25.12 3.36.1 2.31 0 5 .84 7.21 1.23 3 5 4.21 6.87 1.16a1.46 1.46 0 0 0-2.28-1.77m138.8-17.54c-2.87-1.3-5.06.6-5.88 3.43a10.71 10.71 0 0 0-.36 2.38 4.72 4.72 0 0 0-2.38.6.81.81 0 0 0-.16 1.24 2.81 2.81 0 0 0 2.58.61c0 .73.1 1.44.13 2.15a92.46 92.46 0 0 1 .06 9.27c-.08 1.64 2.57 1.66 2.57 0 0-2.87 0-5.74-.18-8.6 0-.59-.16-1.62-.24-2.78a3.14 3.14 0 0 0 2.31-.34c.73-.51.76-1.87-.28-2.08a11.33 11.33 0 0 0-2.06-.2c.14-2.23.83-4.13 3-3.63 1.2.27 2.11-1.5.89-2.05m3.02.66c-.47 2.87.09 5.86.19 8.76.12 3.34.1 6.67 0 10a1.3 1.3 0 0 0 2.59 0c.22-5.72.93-13.36-1.21-18.76-.26-.66-1.43-.9-1.58 0Zm18.98 13.9A1.29 1.29 0 0 0 299.1 36c-1-3.09-2.51-7-6.32-7.17-3.42-.17-6.9 2.83-7.54 6.1s.34 6.73 3.42 8.27a8.75 8.75 0 0 0 9.59-1.64 1.37 1.37 0 1 0-2.16-1.67c-1.14 1.49-4.21 1.79-5.82 1.24a4.07 4.07 0 0 1-2.64-3.58c3.37.18 6.84 0 10.24.1m-10.05-2.48c.64-2.05 3.11-4.07 5.31-3.5 1.61.42 2.42 1.85 3 3.34a53.21 53.21 0 0 0-8.31.16m26.57 6.56a36.43 36.43 0 0 0-4.31-5.87 28.46 28.46 0 0 0 3.74-5.53 1.08 1.08 0 0 0-1.69-1.3 25.07 25.07 0 0 0-4 4.59c-1.54-1.83-3.25-3.94-5.26-4.8-.61-.26-1.49.18-1.24 1 .78 2.36 3.08 4.29 4.79 6.12a57.22 57.22 0 0 0-4.63 6.43 1.31 1.31 0 0 0 2.21 1.29 40.7 40.7 0 0 1 4.2-5.6c1.36 1.76 2.6 3.61 4.1 5.25 1.06 1.1 2.81-.31 2.09-1.58m2.36-4.26a5.47 5.47 0 0 0 2.64.34c1 0 2 0 3-.08 1.66-.12 1.69-2.66 0-2.61-1 0-2 .13-3 .22a5.65 5.65 0 0 0-2.64.56.92.92 0 0 0 0 1.57m23.79-.27c.62 0 1.38-.56 1.28-1.28-.49-3.66-2.81-6.82-6.64-7.41a7.48 7.48 0 0 0-8.26 5.22 8.78 8.78 0 0 0 3.29 9.6c3.11 2 7.82 1.06 10.44-1.32 1.25-1.14-.57-2.86-1.84-1.83-1.79 1.45-4.79 2.41-7 1.24a5.63 5.63 0 0 1-2.57-3.67c3.76.04 7.55-.32 11.3-.55M339 34.73c-3.3.19-6.6.38-9.9.62.9-5.78 8.17-5.35 9.9-.62m19-1.12a5.44 5.44 0 0 0-2.59-4.49c-2.64-1.41-5.84-.16-8 1.89a7.77 7.77 0 0 0-.39-1.58.93.93 0 0 0-1.78 0c-.65 2.18-.3 4.63-.25 6.88a40.12 40.12 0 0 0 .39 6.94c.21 1.06 2.05 1.12 2.21 0a39.22 39.22 0 0 0 0-6.94v-2.44a13.46 13.46 0 0 1 2.65-2.1c1.89-1 4.35-1.05 5.09 1.43.83 2.76.32 6.4.36 9.26a1.3 1.3 0 0 0 2.6 0 56.91 56.91 0 0 0-.29-8.85m17.64-10.05c-.11-.9-1.41-1.23-1.68-.23a32.22 32.22 0 0 0-.94 6.55 7.75 7.75 0 0 0-11.61 6.57c-.09 3.13 1.73 6.78 4.93 7.63 2.82.76 5.28-.71 7.18-2.68.07.65.14 1.3.21 1.93.17 1.57 2.63 1.64 2.52 0-.45-6.53.18-13.33-.61-19.77m-7.13 18.16c-3.24.63-5-3.07-4.68-5.78a5.43 5.43 0 0 1 4-4.53c2-.51 3.48.31 5.15 1.12 0 1.81.1 3.63.24 5.41-1.28 1.55-2.65 3.38-4.71 3.78"/><path d="M63.76 67.05c-.9-7.08-9.24.18-8.66 4.8 2 16 1.55 32.17 1.22 48.28 0 1.79-.07 3.59-.11 5.38 0 .22-.1 1.37-.16 2.55-.7.18-1.41.35-2.11.5a93.5 93.5 0 0 1-5.5 1.05 95 95 0 0 1-25 .48c-4.63-.49-9.44 10.41-4.13 11a102.69 102.69 0 0 0 28.92-1c8.12-1.47 15.88-3.7 16.46-13.31 1.2-19.66 1.55-40.18-.93-59.73M117.3 141c-4-23.79-.93-48.06-2.14-72-.36-7.08-8.88.2-8.65 4.81 1 19-.64 38 .5 57q.4 6.84 1.37 13.61c.2 1.36 2 5.56.16 6.32-1.32.11-2.63.19-4 .23-9.21.58-18.39 1.73-27.55 0-4.51-.87-9.49 9.95-4.13 11a65.78 65.78 0 0 0 16.46.81c5.35-.3 11.25-.08 16.49-1.1a16.19 16.19 0 0 0 9.93-7c2.92-4.59 2.38-8.8 1.56-13.68m52.81-72.83c-.55-7.09-9 .19-8.66 4.81.37 4.82.59 9.65.59 14.49 0 3.32.4 7.62 0 11.34-9.27 3-20.73.8-30.32-.36a2.1 2.1 0 0 0-2.48-.68l-1.47.45c-3 .92-8.77 10.34-3.08 10.88 7.17.69 14.46 1.82 21.67 2 5.67.1 13.41-.54 18.44-3.32 5.77-3.19 5.33-10.65 5.63-16.37a183.14 183.14 0 0 0-.32-23.24M224 93.86l.09-15.61c0-3.13 1.07-7.76-2-9.77-4-2.66-10.17 7.63-6 10.39-.84-.55-.68 5.59-.68 6.14v5.85l-.07 12.69q0 6.33-.08 12.68v8.14c-1.55.34-3.28.47-4.33.61-3.17.42-6.4.53-9.59.64-6.41.24-12.81.13-19.21-.22-4.67-.25-9.37 10.69-4.13 11a181 181 0 0 0 29.27-.43c7.63-.82 15.63-3.06 16.57-11.86.94-9.88.06-20.33.16-30.25" opacity=".15"/><path fill="#f7941f" d="M218.16 125.2c-.42 2-.31 4.4-4.93 5.41-1.14.25-33.68-.16-34.91-.68-4.25-1.77-5.22-6.7-5.09-9 .09-1.52-.17-48.94.17-52 .15-1.36.54-4.8 2.53-6 3.63-2.1 35.24-.88 37.38-.28 3.3.93 4.3 5.18 4.52 7.66s.74 52.91.33 54.89M110.34 65.62c-.2-1-2.17-3.12-4.35-3.64-.54-.13-31.88-1.74-34.25.71s-3.22 7.69-3.18 8.46c0 0 .27 78.24.42 79.81a11.93 11.93 0 0 0 3 4.25c1.72 1.07 29.56.48 33.17.76 6.6.51 6.43-5.47 6.53-6.75s-1.14-82.58-1.34-83.6m-50.95 1.12c-.23-1-1.44-3.85-4-4.37-.64-.13-35.38-.75-36.95-.39a15.28 15.28 0 0 0-4.11 2.5c-1.34 1.11-1.15 62.45-1.15 62.45.19 1.56 1.28 6.63 2.39 7.23 2 1.07 38.78 1.1 40 .75a5.35 5.35 0 0 0 3.88-4.68c.12-1.23.17-62.47-.06-63.49m59.7.94c.41-2 0-4.15 4.64-5.16 1.15-.25 37.25-.32 38.24.57 2.4 2.16 2.29 6.06 2.16 8.4-.09 1.51.65 23.11.32 26.15-.15 1.36 0 4.58-2 5.73-3.62 2.1-37.5 1.43-39.52.5s-3.81-5.18-4-7.66-.26-26.55.16-28.53"/><path fill="#fff" d="M57.08 62.39a184.3 184.3 0 0 0-30.54-.5c-3 .19-6.39-.62-8.92 1.31-2.77 2.1-3.51 5.66-3.32 8.9 1.17 19.36-4.6 40.28 2.2 59.16 1.56 4.34 7.39-2.18 6.25-5.37-3.35-9.3-3.18-20.54-2.95-30.32.11-5.11.62-10.16 1-15.25a68.64 68.64 0 0 0 .31-7.45c0-1-.1-1.92-.19-2.87 1.52 0 3.09.07 4.39 0 3.18-.21 6.37-.32 9.55-.34a176.16 176.16 0 0 1 19.08 1c3.52.34 7.12-7.86 3.14-8.27m50.41-.23c-5.47-.42-10.95-.7-16.43-.79-4-.06-9.28-.88-13.09.75-7.88 3.38-7.12 16.18-7.43 23.16-1 22.5-1.57 45-1.9 67.54-.08 5.27 6.44-.19 6.49-3.6q.39-27 1.36-53.91.24-6.36.5-12.73c.11-2.68.21-5.36.49-8 .11-1 .11-4.87.82-5.35.25-.17 3.92.37 4.82.37q3.87 0 7.74.1c4.52.12 9 .38 13.53.72 3.49.24 7.05-7.96 3.1-8.26m54.21.84c-7-.27-14-.35-21-.19-4.62.11-11.8-1-15.46 2.61-3.93 3.83-4.42 10.6-4.83 15.72-.57 6.94 0 13.89.61 20.81.47 5.32 6.8-.14 6.49-3.6-.43-4.92-.87-9.85-.86-14.79 0-3.23-.61-10.85 2.39-12.19 1.61-.72 4.89-.22 6.66-.27 2.54-.08 5.09-.12 7.63-.14 5.08 0 10.16.08 15.24.28 3.53.09 7.04-8.12 3.13-8.24m52.43 1.54c-8.9-2.59-17.9-1.69-27-1.26-6.2.29-12.45.56-12.64 8.34a49.62 49.62 0 0 0 .86 8.52 3.26 3.26 0 0 0-.36 1 119.63 119.63 0 0 0-.88 26.27 2.47 2.47 0 0 0 .9 2c-.66 5.56-2.34 13.58 1 17.78 2.55 3.25 5.93-3.21 6-5.2.45-9.22 1-18.46 1-27.71 0-4.56-.18-9.13-.63-13.67-.22-2.17-.53-4.33-.83-6.5-.14-.89-.25-1.78-.35-2.68 4.72-.57 9.91-.29 14.43-.41A49.31 49.31 0 0 1 211 72.77c3.28.94 7.13-7.07 3.13-8.23" opacity=".25"/><path fill="#1e1e1e" d="M112.58 130.45c-.29-21.19-1.43-42.43-1.25-63.61a.64.64 0 0 0 0-.24c-.32-4.26-3.67-5.47-7.46-5.66-4.53-.24-9.08-.38-13.61-.47-5.54-.11-12.06-1.06-17.45.5-4.08 1.18-5.09 6.41-5.32 10.19-.38 6.14 0 12.43.08 18.57l.15 34.54c0 7.47-.19 15 .07 22.45.11 3.09-.94 7.14 2.1 8.74 5.06 2.68 12.21 2 17.73 1.87 3.49-.09 7-.2 10.46-.26 2.72 0 5.81.41 8.48-.07a7.2 7.2 0 0 0 6.21-6.34c.78-6.54-.1-13.66-.19-20.21m-9.68 24.33c-5.62-.11-11.24.17-16.86.32-2.06.06-4.16.18-6.22.05a38.6 38.6 0 0 1-6.14-.94c-1.92-.44-2.64-.53-3.15-2-1.53-4.66-.53-11.86-.53-16.6q-.18-28.28-.35-56.54c0-2.48-.17-5 0-7.5a18.45 18.45 0 0 1 .77-4.42c1.48-4.87 4.91-4.67 9.3-4.78 4.61-.11 9.24 0 13.85.16 4.08.1 15.6-1.62 16.4 4.27-.14 15.56.08 31.13.2 46.68.07 9.45.23 18.91.33 28.36.03 6.63 1.78 13.16-7.6 12.94m62.93-64.16c.08-6.43.09-12.9-.39-19.32-.19-2.55.08-7.15-2.44-8.68-1.63-1-4.87-.87-6.68-1q-6.65-.68-13.33-.8c-6.51-.12-13.6-.16-20 .91-6.07 1-4.33 7.16-4.62 11.67v.11c-.76 4.78-.51 9.9-.51 14.73s-1.18 14 4.36 16.61c2.74 1.3 6.6.62 9.52.77a88.61 88.61 0 0 0 11.29.05c4.5-.33 9-.05 13.49-.21 2.64-.09 6.79-.25 8.51-2.68s.76-9.28.8-12.16m-2.44 6.22c-.06 2.77-.33 5-3.5 6-3.35 1.08-7.75.21-11.23.26-5.91.08-11.59.45-17.51.21-4.88-.21-9.43.65-10.91-5.43-.76-3.14-.46-6.66-.57-9.89-.17-4.65-.55-9.68.08-14.31a.43.43 0 0 0 0-.12c.27-1.62.08-3.25.19-4.88.25-3.84 2.16-5 5.49-5.19 4.53-.3 9.08-.56 13.62-.65a135.89 135.89 0 0 1 18.37 1c1.78.2 4 0 5 1.47.84 1.14.62 3.78.74 5.16.84 8.74.43 17.53.23 26.37m55.51 22.7a.68.68 0 0 0 0-.14c.81-5.61.26-11.69.28-17.33 0-7.52.09-15 0-22.58-.1-6.32 1.26-17.27-7.23-18.28a82.48 82.48 0 0 0-15.55-.44c-5.84.44-11.91-.22-17.69.58-4.46.61-6.47 2-6.41 6.48 0 2-.09 4-.1 6-.08 8.35 0 16.7 0 25 0 6.9.1 13.8 0 20.69 0 3 0 6 1.87 8.55 2.11 2.83 6.44 2.71 9.65 3.1 2.57.31 5.56.86 8.15.56a3.86 3.86 0 0 0 1.07-.21c.16.12.35.43.58.45 4.07.38 8.34-.1 12.42-.32 3.07-.17 8.63.56 11.2-1.67 3.01-2.51 1.5-7.08 1.76-10.44m-4.62 9.7c-3.35 1.06-8.19.51-11.65.66-1.41.07-2.82.13-4.23.17h-3.25c-1.35 0-.38.51-.5.5s-.53-.64-.9-.68c-1.57-.17-3.13-.16-4.71-.24-3.36-.17-9.09 0-12.07-1.69-3.2-1.85-2.7-6-2.67-9.14V79.59c0-3.71-1.31-13.6 2.51-15.61s11.17-.41 15.47-.63a122.45 122.45 0 0 1 12.72-.08c2.05.1 4.27-.22 6.29.15 5 .93 5.4 5.55 5.47 9.87 0 2.21.07 4.42.12 6.64q.24 10.56.45 21.13c.11 5.82 1 12.37.13 18.16 0 0 0 .07-.05.12-.47 3.28 1.12 8.56-3.13 9.9M60.5 111.7c0-9.62-.09-19.24-.17-28.85 0-5.2.43-10.75-.22-15.93a.55.55 0 0 0 0-.18c-.57-5-3-5.33-7.59-5.66-5.11-.35-10.24-.62-15.37-.71a.85.85 0 0 0-.17 0h-2.57a1.43 1.43 0 0 0-.22 0c-4 .06-8 .13-12.07.3-2.72.12-6.89 0-8.55 2.59-1.78 2.75-.82 9.64-.86 12.85q-.29 23.53-.61 47.07c-.06 3.93-.36 10.49 3.73 12.28 2.77 1.21 6.4.56 9.33.61 2.59.05 5.15.55 7.72.65 5 .21 10.09 0 15.08-.17 2.85-.09 7.74.57 10.31-1.14s2-5.85 2.17-8.43c.24-5.07.04-10.2.06-15.28m-1.84-33.13q-.12 11.37-.27 22.72-.14 9.83-.18 19.65c0 3.71 1 11.75-3 13-3.27 1-7.93.37-11.38.44-4.2.08-8.45.17-12.62-.17-2.67-.22-5.27-.39-8-.4-4.24 0-7.33.39-8.49-4.35a17.48 17.48 0 0 1-.48-4.64q.18-20.39.4-40.76c0-4.94.13-9.88.16-14.81 0-1.24-.37-3.22.26-4.3 1.25-2.16 4.36-2.08 6.47-2.18 5-.25 9.92-.31 14.87-.4 4 .06 8 .24 11.92.41 3.81.16 9.4-.63 10.28 4.17v.1c.58 3.53.09 7.85.06 11.52"/><path d="M315.73 138.84c-.9-7.08-9.24.18-8.65 4.8 2 16 1.54 32.17 1.22 48.28 0 1.79-.08 3.59-.11 5.38 0 .22-.1 1.37-.16 2.55-.71.18-1.41.35-2.12.5q-2.73.61-5.49 1.05a94.55 94.55 0 0 1-25 .48c-4.63-.49-9.44 10.42-4.13 11a102.25 102.25 0 0 0 28.91-1c8.12-1.46 15.89-3.7 16.46-13.31 1.21-19.66 1.56-40.18-.93-59.73m53.55 53.5c-4-23.79-.94-48.06-2.14-72-.36-7.08-8.89.2-8.66 4.81 1 19-.63 38 .51 57q.4 6.84 1.37 13.61c.19 1.36 1.15 4.37.93 5.7q2-.52-.78.62c-1.31.11-2.62.19-3.94.23-9.21.58-18.39 1.73-27.55 0-4.51-.87-9.49 10-4.13 11a65.78 65.78 0 0 0 16.46.81c5.34-.3 11.25-.08 16.49-1.1a16.19 16.19 0 0 0 9.93-7c2.86-4.56 2.33-8.77 1.51-13.68m52.8-21.34c-.54-7.09-9 .19-8.65 4.8.37 4.83.59 9.65.59 14.49 0 3.33.4 7.63 0 11.35-9.26 3-20.72.8-30.31-.37a2.11 2.11 0 0 0-2.49-.67l-1.47.44c-3 .92-8.76 10.34-3.08 10.89 7.18.68 14.47 1.81 21.68 1.95 5.66.1 13.41-.55 18.44-3.33 5.77-3.19 5.33-10.65 5.62-16.36a179.48 179.48 0 0 0-.33-23.19m53.85-.32q0-7.8.1-15.61c0-3.14 1.07-7.76-2-9.78-4-2.66-10.18 7.64-6 10.39-.84-.55-.68 5.6-.69 6.14v5.86q0 6.34-.08 12.68l-.08 12.64v8.15c-1.55.34-3.28.46-4.33.6-3.17.42-6.4.53-9.59.65-6.41.23-12.82.13-19.22-.22-4.66-.26-9.36 10.69-4.13 11a182.31 182.31 0 0 0 29.28-.43c7.63-.83 15.63-3.07 16.56-11.87 1.01-9.88.12-20.28.18-30.2" opacity=".15"/><path fill="#f7941f" d="M470.13 202c-.41 2-.71 4.4-5.33 5.41-1.15.25-34.05 0-35-.9-2.4-2.15-4.68-6.49-4.55-8.82.09-1.51-.17-48.93.16-52 .15-1.36.21-4.81 2.19-6 3.63-2.1 33.89-1.54 37.59-.77s4.44 5.67 4.66 8.15.7 52.93.28 54.93M362.6 117.37c-.19-1-2.45-3.5-4.64-4-.54-.12-30.44-1.89-33.89.16s-3.58 8.24-3.54 9c0 0 .71 79.3.87 80.87.07.7 2.3 3 3.24 3.54 1.71 1.08 28.86.13 32.48.41 6.6.51 6.42-5.87 6.53-7.15s-.85-81.81-1.05-82.83m-51.23 21.16c-.24-1-1.44-3.85-4-4.37-.64-.13-36.59-2.69-40.42.78-1.29 1.17-1.16 5.11-1.11 5.89l-.67 57.89c.18 1.57 1.78 6.64 2.88 7.23 2 1.07 38.28 1.1 39.52.75a4.1 4.1 0 0 0 3.38-4c.1-1.28.65-63.15.42-64.17m60.03 33.7c.42-2-.39-5.27 4-7 4.22-1.69 37.55-.2 38.55.69 4.55 4.05 4 39.25.75 40.28-4.25 1.35-38.36 1.71-41.67-1s-2.03-30.99-1.63-32.97"/><path fill="#fff" d="M309.06 134.18a184.32 184.32 0 0 0-30.54-.5c-3 .19-6.39-.62-8.93 1.31-2.76 2.1-3.5 5.66-3.31 8.9 1.17 19.36-4.6 40.28 2.2 59.16 1.56 4.34 7.39-2.18 6.24-5.37-3.35-9.3-3.17-20.54-3-30.32.12-5.1.63-10.16 1-15.25a66.2 66.2 0 0 0 .31-7.45c0-1-.09-1.92-.19-2.87 1.53 0 3.1.08 4.4 0 3.18-.2 6.36-.32 9.55-.34a176.16 176.16 0 0 1 19.08 1c3.56.32 7.13-7.86 3.19-8.27m50.4-20.65c-5.47-.42-10.94-.7-16.43-.79-4-.06-9.27-.88-13.09.75-7.87 3.38-7.12 16.18-7.42 23.16-1 22.5-1.58 45-1.9 67.54-.08 5.27 6.43-.19 6.48-3.6q.4-27 1.37-53.91.22-6.36.49-12.73c.12-2.68.21-5.36.5-8 .11-1 .1-4.87.82-5.35.25-.17 3.92.37 4.82.37q3.87 0 7.74.1c4.51.12 9 .38 13.53.72 3.48.21 7.05-7.96 3.09-8.26m54.22 52.23c-7-.27-14-.36-21-.19-4.63.11-11.8-1-15.47 2.61-3.92 3.83-4.41 10.6-4.83 15.71-.56 7 0 13.89.62 20.82.47 5.31 6.8-.14 6.49-3.61-.43-4.92-.88-9.85-.87-14.79 0-3.23-.61-10.84 2.39-12.18 1.62-.72 4.9-.22 6.67-.28 2.54-.07 5.08-.12 7.62-.13 5.09 0 10.17.07 15.25.27 3.53.14 7.04-8.08 3.13-8.23m52.43-24.41c-8.91-2.58-17.91-1.68-27-1.26-6.2.29-12.46.56-12.64 8.34a47.62 47.62 0 0 0 .86 8.52 3.49 3.49 0 0 0-.36 1 119.7 119.7 0 0 0-.88 26.28 2.45 2.45 0 0 0 .9 2c-.66 5.55-2.35 13.58 1 17.78 2.56 3.24 5.94-3.22 6-5.2.45-9.23 1-18.47 1-27.71 0-4.56-.18-9.13-.63-13.67-.21-2.18-.52-4.34-.82-6.5-.14-.89-.25-1.79-.35-2.69 4.72-.56 9.91-.28 14.42-.41a49.58 49.58 0 0 1 15.39 1.76c3.25.93 7.11-7.08 3.11-8.24" opacity=".25"/><path fill="#1e1e1e" d="M364.56 181.82c-.29-21.19-1.44-42.43-1.25-63.61a.63.63 0 0 0 0-.24c-.31-4.26-3.66-5.47-7.46-5.66-4.53-.24-9.07-.38-13.61-.47-5.53-.11-12.06-1.06-17.44.5-4.08 1.18-5.09 6.41-5.33 10.19-.37 6.14.06 12.43.09 18.57l.14 34.54c0 7.47-.19 15 .08 22.45.1 3.09-.94 7.14 2.1 8.74 5 2.68 12.21 2 17.73 1.87 3.49-.09 7-.2 10.46-.26 2.72 0 5.8.41 8.48-.07a7.2 7.2 0 0 0 6.21-6.34c.77-6.54-.12-13.65-.2-20.21m-9.68 24.33c-5.62-.11-11.25.17-16.86.32-2.07.06-4.16.18-6.22.05a38.42 38.42 0 0 1-6.14-.94c-1.93-.44-2.64-.53-3.16-2-1.57-4.62-.51-11.82-.54-16.56q-.19-28.28-.35-56.54c0-2.48-.17-5 0-7.5a18 18 0 0 1 .76-4.42c1.48-4.87 4.91-4.67 9.31-4.78 4.61-.11 9.23 0 13.84.16 4.09.1 15.61-1.62 16.41 4.27-.15 15.56.07 31.13.19 46.68.07 9.45.23 18.91.34 28.36.04 6.59 1.79 13.08-7.58 12.9m62.92-12.73c.08-6.43.09-12.9-.38-19.32-.19-2.56.07-7.16-2.44-8.68-1.63-1-4.88-.87-6.68-1.06-4.43-.45-8.89-.72-13.33-.79-6.51-.12-13.61-.17-20 .91-6.07 1-4.32 7.16-4.62 11.66a.36.36 0 0 0 0 .11c-.77 4.79-.51 9.91-.51 14.74s-1.18 14 4.35 16.61c2.75 1.3 6.61.62 9.53.77a88.61 88.61 0 0 0 11.29 0c4.5-.33 9-.06 13.49-.22 2.64-.09 6.78-.25 8.51-2.67s.76-9.18.79-12.06m-2.43 6.22c-.07 2.77-.33 5-3.5 6-3.36 1.09-7.75.22-11.23.27-5.91.08-11.59.45-17.51.2-4.88-.2-9.43.65-10.91-5.43-.76-3.13-.46-6.65-.58-9.88-.16-4.65-.54-9.69.09-14.31a.43.43 0 0 0 0-.12c.26-1.62.08-3.25.19-4.88.24-3.84 2.15-5 5.49-5.19 4.53-.3 9.08-.56 13.62-.65a137.54 137.54 0 0 1 18.37.95c1.78.21 4 .05 5 1.47.84 1.14.62 3.78.73 5.17.8 8.76.44 17.59.24 26.4m55.51-3.29v-.13c.81-5.61.26-11.7.27-17.33 0-7.53.1-15.06 0-22.58C471 150 472.37 139 463.87 138a83.22 83.22 0 0 0-15.54-.44c-5.85.45-11.91-.21-17.69.58-4.46.62-6.47 2-6.42 6.49 0 2-.08 4-.1 6-.07 8.35 0 16.69 0 25 0 6.9.11 13.79.05 20.69 0 3 0 6 1.87 8.54 2.1 2.83 6.43 2.72 9.65 3.11 2.57.31 5.56.86 8.15.56a3.62 3.62 0 0 0 1.06-.21c.16.11.36.43.59.45 4.07.38 8.34-.1 12.42-.33 3.07-.16 8.63.56 11.2-1.66 3.02-2.5 1.5-7.07 1.77-10.43m-4.62 9.71c-3.35 1.06-8.19.51-11.66.66-1.4.06-2.82.13-4.23.16-1.08 0-2.16 0-3.24.05-1.35 0-.39.51-.51.5s-.52-.65-.89-.69c-1.57-.16-3.14-.16-4.72-.24-3.35-.16-9.09 0-12.06-1.69-3.2-1.84-2.7-6-2.68-9.14v-17.39c0-7.28 0-14.56.05-21.84 0-3.7-1.32-13.59 2.5-15.6s11.18-.41 15.48-.64a122.24 122.24 0 0 1 12.7-.12c2.05.1 4.28-.22 6.3.16 5 .93 5.39 5.55 5.47 9.86 0 2.22.07 4.43.12 6.64q.24 10.57.45 21.14c.1 5.81 1 12.36.13 18.15a.61.61 0 0 0-.05.12c-.5 3.29 1.08 8.57-3.16 9.91m-153.79-22.57c0-9.62-.08-19.24-.16-28.85 0-5.2.43-10.75-.22-15.93a.52.52 0 0 0 0-.18c-.57-5-3-5.33-7.6-5.66-5.1-.35-10.23-.62-15.36-.71a1 1 0 0 0-.18 0h-2.58a1.24 1.24 0 0 0-.22 0c-4 .06-8.06.13-12.08.31-2.71.12-6.89 0-8.54 2.59-1.78 2.74-.82 9.63-.86 12.84q-.29 23.53-.61 47.07c-.07 3.93-.37 10.49 3.73 12.28 2.77 1.21 6.4.56 9.33.61 2.59 0 5.15.55 7.72.65 5 .21 10.09 0 15.08-.17 2.85-.09 7.74.57 10.31-1.14s2.05-5.85 2.17-8.42c.26-5.08.06-10.21.07-15.29m-1.84-33.13q-.11 11.37-.27 22.72-.12 9.82-.17 19.65c0 3.71 1 11.75-3 13-3.28 1-7.93.37-11.38.44-4.2.08-8.45.17-12.62-.17-2.68-.22-5.28-.39-8-.4-4.23 0-7.32.39-8.48-4.35a17.48 17.48 0 0 1-.48-4.64q.18-20.39.39-40.76c.05-4.94.14-9.88.16-14.81 0-1.24-.36-3.22.26-4.3 1.25-2.16 4.37-2.08 6.48-2.18 5-.25 9.92-.31 14.87-.4 4 .06 8 .24 11.91.41s9.41-.63 10.28 4.17a.47.47 0 0 0 .05.1c.53 3.53.04 7.85 0 11.52M7.31 281.63c1.31-6.7 7.46-5.7 12.7-5.86 4.66-.14 9.3-.07 14-.07h5.24l30-.17c31.38-.17 62.76-.28 94.15-.13 12.83.07 25.67.15 38.5.46 6 .14 17.52-1.62 21 4.25 1.65 2.76 1 8.41 1.05 11.52v13.98l-.1 42.78c-.05 22.21.59 44.55-.17 66.75-.12 3.32-.52 6.63-.63 9.95-.09 2.89.48 4.71-3 6.28-2.9 1.31-6.73 1.05-9.88 1.09h-41.58l-94.53-.13c-19.7 0-40 1.21-59.64-.72-2.28-.23-4 0-5.41-2.06s-1.46-5.55-1.65-7.97c-.08-1.05-.11-2.09-.13-3.14-.05-3.09 0-6.19 0-9.29v-39.17c0-27.56-.1-55.12 0-82.68 0-1.94-.11-3.94.07-5.87.08-.91-1.33-.9-1.42 0-.68 7.38-.2 15-.25 22.44q-.18 23.63-.3 47.26c-.13 22.66-.92 45.43-.34 68.08.09 3.63.27 8.18 2.11 11.42 1.39 2.46 3.28 2.72 5.89 3a148.44 148.44 0 0 0 17.76.87h24.86q48.44.08 96.86.14h41.65c7.37 0 15.08.54 22.42-.38 3.53-.44 7.57-1.19 8.49-5.08 1-4.36.72-9.72.86-14.14.07-2.26 0-4.54 0-6.8v-39.67c0-25.53.58-51.11.11-76.64-.11-5.84.95-12.36-4.46-16.12-2.12-1.48-4.31-1.49-6.81-1.65-10.34-.68-20.75-.67-31.1-.78-32.65-.35-65.31-.21-98 0-20.53.11-41.09 0-61.62.4-6.86.14-16.69-1.44-18.22 7.41-.06.97 1.34 1.38 1.52.44m470.6 4.84c0-3.39.47-7.81-1.35-10.86-1.5-2.5-3.88-2.45-6.52-2.69-6-.56-11.93-.76-17.9-.74h-25.43L328 272h-52.24c-4.52 0-9.69-.6-13.87 1.2-3.37 1.45-3.16 4.38-3.27 7.63s-.52 6.57-.6 9.86 0 6.31 0 9.46q0 21.3-.05 42.59c0 24.11.11 48.23-.1 72.34 0 3.87-1.26 14.71 3.08 16.92 1.4.71 3.89.4 5.39.46 10.37.4 20.76.42 31.13.5 32.9.27 65.8.25 98.7.2 19.92 0 39.84-.1 59.75-.13 6.91 0 19.79 2.25 21.62-7a.88.88 0 0 0 0-.28c.7-7.34.14-15 .17-22.36q.09-24 .13-48c.03-22.95.16-45.94.07-68.92m-16.43 144.66c-3.89.09-7.78 0-11.67 0h-36.69q-47.33 0-94.64-.13c-13.23-.06-26.45-.14-39.67-.35-4.1-.07-8.2-.13-12.3-.29-1.47-.06-4.06.28-5-.69-2.33-2.32-1.57-9.45-1.56-12.52v-12.86l.09-40.74c.06-24.28-.54-48.67.19-72.95.1-3.27.5-6.53.62-9.79.09-2.87-.21-4.84 3-5.91 2.78-.93 6.29-.61 9.19-.64h38.16l96.32.13c20.2 0 40.75-1 60.91.61 1.38.11 3.86-.11 5.07.6 2.49 1.44 2.07 6 2.1 8.42v12.35l.18 39.74c.12 28 .32 56 .26 84 0 1.81.11 3.68 0 5.49-1.43 6.84-9.3 5.4-14.56 5.53"/><path d="M63.76 324.06c-.9-7.07-9.24.19-8.66 4.81 2 16 1.55 32.17 1.22 48.28 0 1.79-.07 3.58-.11 5.38 0 .22-.1 1.37-.16 2.55-.7.18-1.41.35-2.11.5a93.5 93.5 0 0 1-5.5 1.05 95 95 0 0 1-25 .48c-4.63-.49-9.44 10.41-4.13 11a102.32 102.32 0 0 0 28.92-1c8.12-1.47 15.88-3.7 16.46-13.31 1.2-19.66 1.55-40.18-.93-59.74m53.54 62.36c-4-23.79-.93-48.06-2.14-72-.36-7.08-8.88.2-8.65 4.81 1 19-.64 38 .5 57q.4 6.84 1.37 13.61c.2 1.35 1.15 4.37.93 5.7q2-.53-.77.62c-1.32.11-2.63.18-4 .23-9.21.58-18.39 1.73-27.55 0-4.51-.87-9.49 10-4.13 11a66.25 66.25 0 0 0 16.46.81c5.35-.3 11.25-.08 16.49-1.1a16.19 16.19 0 0 0 9.93-7c2.92-4.56 2.38-8.77 1.56-13.68m52.81-47.54c-.55-7.09-9 .19-8.66 4.8.37 4.83.59 9.65.59 14.49 0 3.33.4 7.62 0 11.35-9.27 3-20.73.79-30.32-.37a2.11 2.11 0 0 0-2.48-.68l-1.47.45c-3 .92-8.77 10.34-3.08 10.88 7.17.69 14.46 1.82 21.67 1.95 5.67.11 13.41-.54 18.44-3.32 5.77-3.19 5.33-10.65 5.63-16.36a183.11 183.11 0 0 0-.32-23.19M224 351.13l.09-15.61c0-3.14 1.07-7.76-2-9.78-4-2.66-10.17 7.64-6 10.39-.84-.55-.68 5.6-.68 6.14v5.86q0 6.35-.07 12.68t-.08 12.68v8.15c-1.55.34-3.28.46-4.33.6-3.17.42-6.4.53-9.59.65-6.41.23-12.81.13-19.21-.22-4.67-.26-9.37 10.69-4.13 11a182.2 182.2 0 0 0 29.27-.43c7.63-.83 15.63-3.07 16.57-11.87.94-9.88.06-20.32.16-30.24" opacity=".15"/><path fill="#f7941f" d="M218.16 382.47c-.42 2-.19 3.73-4.81 4.74-1.14.25-33.4 2.26-37.21-.77-2.52-2-3-5.95-2.91-8.28.09-1.51-.17-48.93.17-52 .15-1.36.2-4.81 2.18-5.95 3.63-2.1 31.45-1.52 35.61-.95s6.42 5.85 6.64 8.33.74 52.9.33 54.88m-107.53-71.16c-.2-1-2.46-3.36-4.64-3.88-.54-.13-28.81-2-33.1-.15s-4.37 8.54-4.33 9.32c0 0 .2 78.8.36 80.37.07.7 1 3.94 4.24 3.86 2-.06 28.36.57 32 .59 7 0 6.4-7.21 6.5-8.48s-.84-80.61-1.03-81.63m-51.24 12.45c-.23-1-1.44-3.86-4-4.37-.64-.13-35.82-2.61-40.43.78-1.4 1-1.78 63.78-1.78 63.78.19 1.56 1.28 6.63 2.39 7.22 2 1.08 38.78 1.1 40 .76a4.11 4.11 0 0 0 3.38-4c.12-1.28.67-63.15.44-64.17m59.7 14.62c.41-2 1-4.27 5.65-5.27 1.14-.25 32.69-1.32 37.23.68 4.82 2.13 2.81 31.51 2.48 34.55-.15 1.37-.08 4.59-2.07 5.74-3.63 2.09-38.06.92-40.07 0s-3.16-4.69-3.38-7.17-.26-26.54.16-28.53"/><path fill="#fff" d="M57.08 319.91c-10.15-1.1-20.32-2.08-30.54-1.49-3 .17-6.44-.21-8.92 1.74-2.74 2.16-3.51 5.69-3.32 9 1.17 19.36-4.6 40.28 2.2 59.16 1.56 4.34 7.39-2.18 6.25-5.37-5.3-14.7-2.77-32.24-1.77-47.44.05-.76 0-5.8-.07-8.65.84 0 1.68-.07 2.52-.17 1.91-.11 3.82-.19 5.73-.2A212.29 212.29 0 0 1 54 328.14c3.45.38 7.06-7.8 3.08-8.23m50.41-12.3c-5.47-.42-10.95-.7-16.43-.79-4-.06-9.28-.88-13.09.75-7.88 3.38-7.12 16.18-7.43 23.16-1 22.5-1.57 45-1.9 67.54-.08 5.27 6.44-.19 6.49-3.6q.39-27 1.36-53.91.24-6.36.5-12.73c.11-2.68.21-5.36.49-8 .11-1.05.11-4.88.82-5.35.25-.17 3.92.37 4.82.37q3.87 0 7.74.1c4.52.12 9 .38 13.53.72 3.49.24 7.05-7.96 3.1-8.26m54.21 26.06c-7-.28-14-.36-21-.19-4.62.11-11.8-1-15.46 2.61-3.93 3.82-4.42 10.6-4.83 15.71-.57 6.95 0 13.89.61 20.81.47 5.32 6.8-.13 6.49-3.6-.43-4.92-.87-9.85-.86-14.79 0-3.23-.61-10.84 2.39-12.19 1.61-.72 4.89-.21 6.66-.27 2.54-.07 5.09-.12 7.63-.13 5.08 0 10.16.07 15.24.27 3.53.1 7.04-8.08 3.13-8.23m52.43-11.87c-8.9-2.58-17.9-1.68-27-1.26-6.2.29-12.45.56-12.64 8.34a49.52 49.52 0 0 0 .86 8.52 3.49 3.49 0 0 0-.36 1 119.7 119.7 0 0 0-.88 26.28 2.48 2.48 0 0 0 .9 2c-.66 5.55-2.34 13.57 1 17.78 2.55 3.24 5.93-3.22 6-5.2.45-9.23 1-18.47 1-27.71 0-4.56-.18-9.13-.63-13.67-.22-2.18-.53-4.34-.83-6.5-.14-.89-.25-1.79-.35-2.69 4.72-.56 9.91-.28 14.43-.41A49.62 49.62 0 0 1 211 330c3.28 1 7.13-7 3.13-8.2" opacity=".25"/><path fill="#1e1e1e" d="M112.58 375.9c-.29-21.19-1.43-42.43-1.25-63.62a.56.56 0 0 0 0-.23c-.32-4.26-3.67-5.47-7.46-5.66-4.53-.24-9.08-.38-13.61-.47-5.54-.11-12.06-1.06-17.45.5-4.08 1.18-5.09 6.41-5.32 10.19-.38 6.14 0 12.43.08 18.57l.15 34.53c0 7.48-.19 15 .07 22.46.11 3.09-.94 7.14 2.1 8.74 5.06 2.67 12.21 2 17.73 1.87 3.49-.09 7-.21 10.46-.26 2.72 0 5.81.41 8.48-.08a7.18 7.18 0 0 0 6.21-6.34c.78-6.53-.1-13.64-.19-20.2m-9.68 24.33c-5.62-.11-11.24.17-16.86.32-2.06.05-4.16.18-6.22.05a38.6 38.6 0 0 1-6.14-.94c-1.92-.44-2.64-.53-3.15-2C69 393 70 385.8 70 381.05q-.18-28.26-.35-56.53c0-2.48-.17-5 0-7.5a18.62 18.62 0 0 1 .77-4.43c1.48-4.87 4.91-4.67 9.3-4.77 4.61-.11 9.24 0 13.85.16 4.08.1 15.6-1.62 16.4 4.27-.14 15.56.08 31.13.2 46.68.07 9.45.23 18.91.33 28.36.03 6.63 1.78 13.12-7.6 12.94m62.93-38.9c.08-6.43.09-12.9-.39-19.32-.19-2.56.08-7.16-2.44-8.69-1.63-1-4.87-.87-6.68-1.05q-6.65-.67-13.33-.8c-6.51-.11-13.6-.16-20 .92-6.07 1-4.33 7.16-4.62 11.66v.11c-.76 4.79-.51 9.91-.51 14.74s-1.18 14 4.36 16.6c2.74 1.3 6.6.63 9.52.77a88.61 88.61 0 0 0 11.29.06c4.5-.33 9-.06 13.49-.22 2.64-.09 6.79-.25 8.51-2.68s.76-9.23.8-12.1m-2.44 6.22c-.06 2.77-.33 4.95-3.5 6-3.35 1.08-7.75.22-11.23.27-5.91.08-11.59.45-17.51.2-4.88-.2-9.43.65-10.91-5.43-.76-3.14-.46-6.66-.57-9.88-.17-4.66-.55-9.69.08-14.32a.37.37 0 0 0 0-.11c.27-1.62.08-3.25.19-4.88.25-3.84 2.16-5 5.49-5.19 4.53-.3 9.08-.56 13.62-.65a137.54 137.54 0 0 1 18.37 1c1.78.21 4 0 5 1.47.84 1.14.62 3.78.74 5.17.84 8.71.43 17.54.23 26.35m55.51 9.25a.51.51 0 0 0 0-.13c.81-5.61.26-11.7.28-17.33 0-7.53.09-15.06 0-22.58-.1-6.33 1.26-17.27-7.23-18.29a82.48 82.48 0 0 0-15.55-.44c-5.84.45-11.91-.21-17.69.58-4.46.62-6.47 2-6.41 6.49 0 2-.09 4-.1 6-.08 8.35 0 16.69 0 25 0 6.89.1 13.79 0 20.69 0 3 0 6.05 1.87 8.54 2.11 2.83 6.44 2.72 9.65 3.11 2.57.31 5.56.86 8.15.56a3.86 3.86 0 0 0 1.07-.21c.16.11.35.43.58.45 4.07.38 8.34-.1 12.42-.33 3.07-.16 8.63.56 11.2-1.66 3.01-2.52 1.5-7.09 1.76-10.45m-4.62 9.71c-3.35 1.06-8.19.51-11.65.66-1.41.06-2.82.13-4.23.16-1.08 0-2.17 0-3.25.05-1.35 0-.38.51-.5.5s-.53-.65-.9-.69c-1.57-.16-3.13-.16-4.71-.24-3.36-.16-9.09 0-12.07-1.69-3.2-1.84-2.7-6.05-2.67-9.14v-39.23c0-3.7-1.31-13.59 2.51-15.6s11.17-.41 15.47-.64a122.45 122.45 0 0 1 12.71-.12c2.05.1 4.27-.22 6.29.16 5 .93 5.4 5.55 5.47 9.86 0 2.22.07 4.43.12 6.64q.24 10.57.45 21.14c.11 5.81 1 12.36.13 18.15 0 0 0 .08-.05.12-.46 3.29 1.13 8.57-3.12 9.91M60.5 368.72c0-9.62-.09-19.24-.17-28.85 0-5.2.43-10.75-.22-15.94a.47.47 0 0 0 0-.17c-.57-5-3-5.33-7.59-5.66-5.11-.35-10.24-.62-15.37-.71a.85.85 0 0 0-.17 0h-2.57a1.43 1.43 0 0 0-.22 0c-4 .06-8 .13-12.07.3-2.72.12-6.89 0-8.55 2.59-1.78 2.75-.82 9.64-.86 12.85q-.29 23.53-.61 47.07c-.06 3.93-.36 10.49 3.73 12.28 2.77 1.21 6.4.55 9.33.61 2.59.05 5.15.55 7.72.65 5 .21 10.09 0 15.08-.17 2.85-.09 7.74.57 10.31-1.14s2.21-18.63 2.23-23.71m-1.84-33.13q-.12 11.36-.27 22.72-.14 9.82-.18 19.65c0 3.71 1 11.75-3 13-3.27 1-7.93.37-11.38.44-4.2.08-8.45.17-12.62-.17-2.67-.22-5.27-.39-8-.4-4.24 0-7.33.39-8.49-4.35a17.48 17.48 0 0 1-.48-4.64q.18-20.38.4-40.77c0-4.93.13-9.87.16-14.8 0-1.24-.37-3.22.26-4.3 1.25-2.16 4.36-2.08 6.47-2.18 4.95-.25 9.92-.31 14.87-.4 4 .05 8 .24 11.92.41 3.81.16 9.4-.63 10.28 4.17v.1c.58 3.53.09 7.85.06 11.52"/><path d="M315.73 284.29c-.9-7.08-9.24.18-8.65 4.8 3.62 28.44.19 57.27.71 85.81.21 11.42.77 22.85.54 34.28-.06 3.18-.41 6.52-.27 9.72l-.33.09c-2.1-.19-5.19 1.12-7.31 1.46a94.55 94.55 0 0 1-25 .48c-4.63-.49-9.44 10.42-4.13 11a102.67 102.67 0 0 0 27.07-.67c7.05-1.13 15.41-2.23 17.74-10.17 1.2-4.11.71-8.86.79-13.11.06-3.06.16-6.13.16-9.19 0-5.87-.24-11.75-.39-17.62-.43-18-.11-35.88.53-53.9a269.23 269.23 0 0 0-1.46-42.98m53 120.71c-.42-6.92-.39-13.86-.32-20.78.19-17.07 1-34.13.91-51.2-.1-15.31-1.31-30.55-2.18-45.83-.41-7.09-8.92.19-8.66 4.8.73 12.75 1.75 25.48 2.06 38.25.39 15.41-.21 30.83-.55 46.23-.28 12.24-.76 24.62.35 36.83.2 2.18.87 4.53.87 6.7 0 .59.24.68.86.28a4.93 4.93 0 0 1-3.65.93c-1.85.11-3.7.2-5.55.33-8 .56-15.9 1.25-23.85-.29-4.51-.87-9.49 9.95-4.13 11 9.2 1.78 18.31.53 27.55 0 7.14-.37 13.24-2.35 16.47-9.46 2.47-5.43.17-12.03-.18-17.79m53.38.42c0-27.66-.64-55.32-.42-83 .09-12.07 1.2-24.41.39-36.46-.47-7.09-9 .19-8.65 4.8.67 9.94-.21 20.11-.33 30.06-.18 14.83-.06 29.66 0 44.48.1 12.95.23 25.91.29 38.86v16.66c-9.15 2.7-20.3.56-29.66-.58a2.12 2.12 0 0 0-2.49-.67l-1.47.44c-3 .93-8.76 10.34-3.08 10.89 7.75.74 15.74 2.15 23.53 1.95 5.61-.14 15.3-.73 19.2-5.39 4.35-5.14 2.7-15.81 2.69-22.04m51.94-118.75c-3.81-2.51-9.51 6.55-6.59 9.88a1.4 1.4 0 0 1-.06.24 7.68 7.68 0 0 0 0 1.66v14.82l-.06 28.28-.12 62.14v16.55c-1.55.34-3.27.46-4.32.6-3.17.42-6.4.53-9.59.65-6.41.24-12.82.13-19.22-.22-4.66-.25-9.36 10.69-4.13 11 10.67.58 21.94 1 32.51-.86 7.63-1.32 13.18-4.85 13.39-13.15.22-8.5.06-17 .08-25.53q.07-38.9.15-77.78v-16.56c-.09-3.39 1.1-9.64-2.04-11.72m-6 10.39a.75.75 0 0 1-.2-.15c.07.09.15.09.2.15m-.56-.7c-.09-.34.08-.5 0 0" opacity=".15"/><path fill="#f7941f" d="M470.13 421.07c-.41 2-.54 4.21-5.16 5.22-1.14.25-28.84.95-35.28-.78-3.12-.83-4.61-6.42-4.48-8.75.09-1.51-.17-126.6.16-129.64.15-1.36 1.1-4.83 3.08-6 3.63-2.1 35.36-.93 37.37 0s3.77 4.93 4 7.41.73 130.56.31 132.54M362.56 284.23c-.64-2.9-3.38-3.9-5.56-4.42-.54-.13-31-1-33.45.48s-3.06 8.32-3 9.1c0 0 .21 131.49.37 133.05.07.7 2 2.62 3 3.21 1.71 1.08 26.55.39 30.17.66 6.6.51 9.51-3.83 9.61-5.11s-.91-135.95-1.14-136.97m-51.19-.23c-.24-1-1.44-3.85-4-4.37-.64-.13-35.83-2.51-40.42.79-1.41 1-1.16 5.1-1.11 5.88l-.67 131.49c.18 1.57 2.36 7.29 3.47 7.88 2 1.08 37.69.45 38.93.1 2.91-.8 3.38-4 3.5-5.27s.53-135.5.3-136.5m59.69 1.48c.42-2 .75-4.57 5.37-5.58 1.14-.25 32.37-.21 36.2.72 3.13.76 3.61 6.34 3.47 8.67-.08 1.51.66 127.16.33 130.2-.15 1.36.19 4.18-1.8 5.32-3.62 2.1-37.63 1.72-39.64.8s-3.87-5.07-4.08-7.55-.26-130.6.15-132.58"/><path fill="#fff" d="M307.18 279.83a215.81 215.81 0 0 1-36 .55c-2.92-.2-5.42 4.23-4.67 6.8 3 10.4 1.49 22.76 1.28 33.49q-.35 17.46-1.35 34.89c-1.26 21.88-3.85 43.95 1.23 65.56 1 4.35 7-2.1 6.25-5.37-5.22-22.2-2-45.19-.77-67.66q.9-16.95 1.18-33.93c.13-8.16.9-16.94-.14-25.24a225.66 225.66 0 0 0 31.51-1c3.3-.34 6.15-8.56 1.48-8.09m52.36 1.03c-7.4-.21-14.9-.79-22.29-.49-5 .21-11.61.65-13.55 6.2-1 2.88-.11 6-.05 9a94 94 0 0 1-.75 12.54c-.83 7.41-1.83 14.78-2.32 22.23a209.66 209.66 0 0 0-.37 22.7c.31 7.24 1.66 14.29 2.5 21.47 1.78 15.23 0 31.1-.52 46.39a2.13 2.13 0 0 0 1.7 2.31 5.4 5.4 0 0 0 2.9-.11c3.14-.75 5.75-8.51 2-8.15.35-10.06.8-20.13 1-30.2.19-11-2.19-21.61-2.89-32.57a200.11 200.11 0 0 1 1-34.09c.57-5.33 1.35-10.62 1.85-16 .25-2.73.45-5.48.48-8.23 0-1.61 0-3.22-.14-4.83a1.72 1.72 0 0 0 0-.2c3.88-.9 8.55-.3 12.17-.2l14.27.41c3.47.16 6.9-8.04 3.01-8.18m53.4 1.98a65.41 65.41 0 0 0-23.79-2.78c-4.88.35-11.1.43-13.94 5.12-1.39 2.28-1.37 4.82-1.48 7.4-.18 4.27-.27 8.56-.4 12.84l-.78 24.69q-.78 24.69-1.55 49.39c-.46 14.68-1.71 29.9 3.72 43.88 1.68 4.32 7.48-2.21 6.25-5.36-4.76-12.25-4-25.3-3.61-38.17l1.34-42.48 1.3-41.48c.05-1.65.1-3.29.16-4.94v-1.67c2.18-.09 8.77-1.14 9.55-1.16a64.78 64.78 0 0 1 20.08 2.95c3.27.98 7.14-7.02 3.15-8.23m52.06-.06-24.53-1.47c-5.53-.34-10.59-.79-12.67 5.41-1 2.95-.6 6.42-.66 9.46q-.12 5.88-.22 11.76l-.45 23.74c-.29 15.41-1.4 31.07-.51 46.46.42 7.19 2.22 14.23 2.31 21.45.1 7.9-.6 15.86-1 23.75-.1 2.05 1.7 2.63 3.31 1.9 2-.88 3.08-3.49 3.18-5.51.48-10.37 1.77-21.07.38-31.41a216.79 216.79 0 0 1-1.72-33.41l.66-34.78.31-16.77c.06-2.94.11-5.88.17-8.82l.09-4.9v-.6c4-.3 9 .83 12.47 1l15.7.95c3.55.24 7.09-7.99 3.18-8.21" opacity=".25"/><path fill="#1e1e1e" d="M417.12 298.49c-.13-4.67-.2-9.38-.66-14-.37-3.68-1-4.11-5-4.67-10.49-1.48-21-1.26-31.56-.6-2.75.17-6.58-.27-8.49 2.17-2.16 2.76-.83 6.64-1.13 9.8a.68.68 0 0 0 0 .14c-1.12 7.5-.29 15.77-.37 23.31-.15 15.65-.32 31.3-.35 46.95v40.89c0 8.06-2.75 23.92 7.82 24.83a110 110 0 0 0 14.63.44c5.9-.31 11.87-.08 17.74-.52 2.93-.22 7-.79 7.84-4.13.34-1.38-.05-3.11 0-4.58.14-9.29.16-18.59.18-27.88.09-30.73.23-61.46-.65-92.15m-1.49 85.09c0 10.38-.08 20.75-.22 31.12 0 1.94.33 4.52 0 6.42-1.15 5.9-12 3.71-16.45 3.86-4.82.15-9.37.52-14.2.23-2-.12-4 0-6.05-.17-5-.28-6.48-3.75-6.7-8.33-.1-2.27 0-4.57-.09-6.84-.06-2.84 0-5.69 0-8.53V365.5c0-16.13-.13-32.27-.17-48.4v-18a66.31 66.31 0 0 1 .07-7.62.43.43 0 0 0 0-.12c.45-3.34-1.19-8.57 3.16-10 3.35-1.06 8.19-.5 11.65-.64a145.29 145.29 0 0 1 25.53 1.13c2.93.4 2.29 1.95 2.48 5 .27 4.33.39 8.68.5 13 .66 27.93.58 55.85.49 83.73m55.25 31.82v-.14c1.11-7.49.23-15.77.27-23.29.1-16.14.2-32.28.16-48.42q-.06-20.08-.14-40.17v-7.16c-.09-4.38.44-9.25-1.71-13.26-2-3.78-5.44-3.64-9.33-3.73-4.56-.09-9-.47-13.52-.09-5.49.44-11.24-.46-16.65.52-4.15.75-5.74 2.25-5.69 6.36 0 1.37 0 2.74-.07 4.11-.36 14.78-.54 29.56-.78 44.34-.38 22.51.28 45 .62 67.53.07 4.67.15 9.34.2 14 0 2.79.13 5.64 1.88 8 1.89 2.55 5.39 2.53 8.3 2.92 2.06.28 4.13.51 6.2.63a29.87 29.87 0 0 0 3.28.1c1-.06 1.25-.22 1-.25a44.28 44.28 0 0 0 6.54.49q6.41-.24 12.8-.72c2.38-.18 4.57-.26 5.91-2.54 1.59-2.79.44-6.21.73-9.23m-4.62 9.75c-3.13 1.21-8.28.5-11.66.65-1.57.06-3.15.13-4.73.17-1 0-4 .33-3.32.4-1.84-.18-4.31-.7-6.43-.84-4.22-.28-11.59.12-13.38-4.59-.69-1.83-.51-3.92-.51-5.86 0-4.64-.13-9.28-.19-13.92-.29-20.14-1-40.3-.65-60.44.26-14 .5-28 .82-42 .08-3.86.32-7.75.28-11.62-.07-6.48 6.55-5.52 11.23-5.48s9.43-.62 14.14-.54c4.15.07 13.28-.78 15.57 3 2 3.38 1.35 8.57 1.4 12.35v7.16q.09 18.24.17 36.48c.08 16.45.27 32.9.38 49.35 0 5.91.08 11.82.08 17.73a64.7 64.7 0 0 1 0 7.89.5.5 0 0 0-.05.13c-.41 3.51 1.04 8.36-3.15 9.98M364.81 412.7q0-21.57-.05-43.15c-.08-28.14-1.49-56.3-1.45-84.43a.62.62 0 0 0 0-.28c-.54-6.51-8-5.69-12.78-5.86-6.67-.23-13.41-.59-20.08-.34-2.4.08-6-.09-7.93 1.65-2.19 2-2.85 6.36-3 9.1-.27 4.15 0 8.41-.06 12.57-.13 25.88-.34 51.73-.07 77.6.13 12.41 0 24.87.4 37.27.08 2.1-.42 5.28.2 7 1 2.86 5.1 3.05 7.7 3.49 8 1.33 16.37.17 24.42.14 5.2 0 11.81.41 12.68-6.3a68.38 68.38 0 0 0 .02-8.46m-2.31 7.88c-.79 6.48-10.92 4.58-15.79 4.7-3.7.09-7.41.23-11.12.3a41.4 41.4 0 0 1-5-.11c-1.82-.19-7.11-.35-8.26-2-.64-.94-.24-4.79-.31-6.18s0-2.85-.06-4.28q-.14-8.34-.24-16.69c-.3-22.91-.48-45.8-.35-68.71.08-12.64-.74-25.59.16-38.2.15-2.11.62-5.43 2-7.06 1.55-1.84 4.78-1.62 6.94-1.71 4-.15 8.07 0 12.09.05 4.21.05 18.54-1.77 19.29 4.17v.1c0 21.35.62 42.7.58 64.05v44.41c.09 8.81 1.14 18.38.07 27.16m-50.07-3.99c.48-22 .18-44.18.08-66.23q-.11-22.89-.23-45.76c0-6.64.66-13.81-.19-20.43a.58.58 0 0 0 0-.19c-.62-4.93-3-5.31-7.6-5.63-5.1-.35-10.24-.62-15.37-.71a.85.85 0 0 0-.17 0h-2.58a.82.82 0 0 0-.27.06c-3.1.05-6.2.1-9.29.2-2.83.09-6.94-.24-9.53 1.23-3.42 1.93-2.5 6.83-2.54 10.29-.17 15.47-.31 30.94-.68 46.4-.64 26.41-.23 52.87-.08 79.29 0 3.22 0 7.9 2.32 10.32 2.57 2.69 8.51 1.46 11.73 1.55 4.33.13 8.53.59 12.87.62 3.95 0 7.91-.1 11.86-.26 2.23-.09 5.5.27 7.47-1 2.82-1.94 2.14-6.74 2.2-9.75M310.65 300q-.09 17.5-.22 35c-.17 24.25-.2 48.51-.27 72.76v8.36c-.05 3.49.47 7.94-3.6 8.71-6.71 1.28-15 .83-21.85.44-1.63-.09-3.26-.41-4.89-.51-3-.18-6.6.57-9.46-.25-3.22-.93-3.83-4.09-4.07-7.21-.78-10.07-.17-20.45-.22-30.54-.08-13.88-.18-27.77-.05-41.66.13-15.06.53-30.12.7-45.19.05-4.62.11-9.24.12-13.86 0-3.15.45-5 3.86-5.83a26.88 26.88 0 0 1 5-.31c4.26-.16 8.53-.23 12.8-.3 4 .05 7.93.21 11.89.39s9.47-.62 10.28 4.2a.54.54 0 0 0 .05.11c.57 4.48-.05 10.76-.07 15.69"/><path fill="#7f3f98" d="M32.52 248.78c-3.69-5.38-11.26-.44-11.77 4.82-.58 6 7 10.78 11.7 6.54 1.35-1.22-.68-3.26-2-2-3 2.81-7.86-.88-7.7-4.4.17-3.79 5.1-6.58 7.93-3.54.89 1 2.61-.31 1.84-1.42m14.77 6.65a1.43 1.43 0 0 0 1.4-1.4c0-8-10.62-9.61-13.56-2.47-1.38 3.35-.78 7.23 2.32 9.4s7.67 1.25 10.43-1.33c1.08-1-.28-2.5-1.48-1.93-2.11 1-4.09 2.45-6.53 1.52a4.42 4.42 0 0 1-2.82-3.54c3.09.91 7.28.09 10.24-.25m-1.55-2.64c-1.61.16-3.22.29-4.84.39a24.17 24.17 0 0 0-3.73.29c1.31-4.81 7.58-5.29 8.57-.68m18.51-1.54a3.64 3.64 0 0 0-2.57-3.55c-1.89-.59-5.59 0-7.28 1.78a6.47 6.47 0 0 0-.61-2 .67.67 0 0 0-1.15 0c-.81 1.76-.58 3.71-.67 5.62a66.69 66.69 0 0 0-.35 7.19c.09 1.33 2.11 1.77 2.45.33a30.15 30.15 0 0 0 .44-7v-2c2.07-.78 4.61-3 6.42-1 1 1.17.45 3.12.28 4.62a44.08 44.08 0 0 0-.32 4.87c0 2.21 3.23 1.75 3.12 0-.19-2.99.45-5.92.24-8.86m7.94 6.75c-1.4 1-1.34-3.4-1.35-3.75v-3.94a2.57 2.57 0 0 0 2.61-.61 1.41 1.41 0 0 0 0-1.93c-.71-.81-1.58-.7-2.51-.63a4.94 4.94 0 0 0-1.19-3.36.54.54 0 0 0-.84.11 9.56 9.56 0 0 0-.69 3.18 8.06 8.06 0 0 0-1.1 0 1.14 1.14 0 0 0-.57 2.11 6.76 6.76 0 0 0 1.55.61v1.27a25.23 25.23 0 0 0 .06 6.44c.52 2.82 3.24 5.11 5.79 2.76 1.17-1.06-.41-3.2-1.76-2.26m14.81.34a5.1 5.1 0 0 1-8.39-2.85 38.83 38.83 0 0 0 7.46.21c1.75 0 3.7 0 3.42-2.31a6.86 6.86 0 0 0-10.1-5.34c-4.14 2.08-4.13 8.2-1.53 11.47s8 3.76 10.94.62a1.27 1.27 0 0 0-1.8-1.8m-4.47-8.65a4.34 4.34 0 0 1 4.2 3.32h-4.01c-1.39 0-2.79-.08-4.18.06a4 4 0 0 1 4-3.38Zm17.86-2.16c-1.26-.86-3.18.09-4.29.84a11.53 11.53 0 0 0-1 .78 3.42 3.42 0 0 0-1-1.65.61.61 0 0 0-1 .12c-1.1 1.76-.29 4.37-.33 6.38 0 2.28-.76 4.81 0 7a1.27 1.27 0 0 0 2.47-.34 48.32 48.32 0 0 0 .21-7.61v-1.25a16.08 16.08 0 0 0 1.64-1 6.85 6.85 0 0 1 1.77-.84 3.71 3.71 0 0 0 1.75-.72 1.11 1.11 0 0 0-.22-1.71"/><path fill="#1e1e1e" d="M482.22 615.08a.69.69 0 0 0 0-.25c-.16-18.9-.26-37.79-.4-56.69q-.12-17.82-.25-35.65c0-6.2.4-12.77-.91-18.88-1.7-7.94-6.63-10.86-14.45-11-8.84-.2-17.62.6-26.47.28-2-.08-4 0-6 0h-38.5q-72.11 0-144.19.22-77.62.15-155.25.32l-52.25.13c-8.64 0-18.1-.87-26.7.35-9.73 1.39-7.29 9.7-7.24 17.29v5.24q.06 15.71.13 31.41c.09 21.16.42 42.33.23 63.49 0 4.87-1.62 10.43 1.41 14.71 4.7 6.66 15.23 4.87 22.12 4.82h8.28l36.22-.1q70.55-.19 141.11-.36 77.82-.2 155.64-.41c26-.07 52-.25 77.94-.25 6.71 0 13.54.37 20.22-.37 2.86-.32 6.84-.44 8.32-3.4s.77-7.69.99-10.9m-2 7.57c-.85 4.89-5.48 4.91-9.48 5.13-6 .34-11.95.13-17.91.12h-10.97q-21.39 0-42.77.05l-143.14.3-148.58.33c-23.41 0-46.83.24-70.25.14-7.34 0-25.16 3.08-25.45-8.5-.09-3.45.45-7 .44-10.45l-.08-26.44q-.11-34.14-.19-68.27c0-2.4.06-4.82 0-7.22s-.79-5.16-.17-7.59c1-4.09 4.75-4.15 8.34-4.34 1.26-.06 2.53-.05 3.79-.06h8l40.53-.1 141.53-.29 151.29-.32c24.73-.06 49.68-1.15 74.4-.26 6.84.25 13.53.24 20.38-.16 4.22-.24 9.08-.79 13.09.85 5.27 2.16 6.12 8.63 6.51 13.66.43 5.54.22 11.17.28 16.72l.78 72.92c.06 5.37.13 10.75.18 16.12a.45.45 0 0 0 0 .11c-.23 2.47-.1 5.09-.53 7.55Z"/><path fill="#7f3f98" d="m279.53 249.77.17-.26a1 1 0 0 0-.16-1.21c-2.91-3.23-9.72-3.11-9.54 2.3a4.56 4.56 0 0 0 3.27 4.33c1.49.58 4.53 1 4.85 3 .54 3.39-5.71 2.93-6.91 1.17-1-1.41-3.29 0-2.29 1.34 2.05 2.75 5.26 3.11 8.41 2.07 2.54-.83 4.05-2.88 3.05-5.6a5.56 5.56 0 0 0-2.3-2.74c-1.36-.86-3.67-.92-4.83-1.94-1.81-1.59 0-3.26 1.86-3.54 1.15-.17 2.25 1 3.22 1.13.35.06.94.32 1.2-.09Zm8.29.82v-.45a8.2 8.2 0 0 0 3.39-.09 1.14 1.14 0 0 0 0-2.18 10.07 10.07 0 0 0-3.36-.3 10.77 10.77 0 0 0-.66-4.1c-.45-1.07-1.87-.24-1.72.72a21.41 21.41 0 0 1 .23 3.33 3.41 3.41 0 0 0-2.87.58.49.49 0 0 0-.07.54c.56 1 1.81 1.11 2.89 1.22-.06 1.42-.16 2.83-.24 4.18-.11 2.06-.71 4.89.15 6.86 1.26 2.92 4.28 1.92 5.79-.16.77-1.05-.9-2.27-1.78-1.37-2.32 2.36-1.94-4-1.93-4.18.08-1.54.17-3.06.18-4.6m14.35-2.77c-1.38-1-3.46-.07-4.67.82a8.76 8.76 0 0 0-.84.67c-.25-1.06-.64-1.75-1.24-1.77h-.12a1 1 0 0 0-1 1c-.45 4.4.08 8.94-.23 13.38-.14 1.92 3 1.35 2.6-.2a85.2 85.2 0 0 0 .35-9.47c.57-.39 1.08-.9 1.63-1.3a4.94 4.94 0 0 1 1.34-.76c.64-.21 1.29-.06 1.92-.3a1.15 1.15 0 0 0 .26-2.07m10.38-1.08c-4.07 0-7.43 1.69-8.57 5.82-.86 3.13 0 7.13 2.88 8.93s8.17 1.74 10.58-.74c1.13-1.16-.65-2.94-1.78-1.78-1.43 1.5-4.57 1.4-6.49.83a4.54 4.54 0 0 1-3-4.25 21.24 21.24 0 0 0 4 0c2.26 0 4.52.05 6.77.18a1.38 1.38 0 0 0 1.37-1.36c.18-3.69-1.81-7.59-5.76-7.63m-2.41 6.19a17 17 0 0 0-3.78.33 5.07 5.07 0 0 1 4.87-3.89 3.82 3.82 0 0 1 4.25 3.59c-1.78-.07-3.56-.11-5.34-.03m16.43 7.26a1.68 1.68 0 0 1-1-2.23l.09-1.34c.07-1.57.13-3.14.11-4.71q0-1-.06-1.92a8 8 0 0 0 1-.05 1.46 1.46 0 0 0 1.34-1c0-.06.05-.13.08-.19a1.12 1.12 0 0 0-.52-1.26 3.76 3.76 0 0 0-2.18-.3 8.83 8.83 0 0 1-.4-2.62c.36-.83-.44-2-1.37-1.37-1.25.82-.83 2.7-.65 4.1a4.21 4.21 0 0 0-2.79.69.73.73 0 0 0 0 1 4.46 4.46 0 0 0 2.88.8c0 3.3-.38 6.74.05 9.9s4.17 5 5.59 1.44c.53-1.26-1.6-2.13-2.17-.94m16.92-11.43c-4-4.86-11.62.15-12.13 5.28-.64 6.46 6.54 11.13 11.82 6.92 1.25-1-.54-2.82-1.78-1.78-4.1 3.45-9-1.77-7.44-6.07a5.2 5.2 0 0 1 8-2.42c1.23.85 2.3-.92 1.49-1.93Zm17.16 12.84c-.48-3.17.13-6.4-.11-9.59-.12-1.69-.16-3.55-1.88-4.36-2.21-1-6 .07-8.26 1.94a37.44 37.44 0 0 0-.84-7.49 1 1 0 0 0-1.87 0c-1.18 6.4-.28 13.58-.37 20.08a1.42 1.42 0 0 0 2.83 0c0-3.16.23-6.54.27-9.9.9-.44 1.73-1 2.67-1.46a11.1 11.1 0 0 1 2.45-.78c1.36-.26 1.81-.38 2.26.81.59 1.53.15 4.07.06 5.69a36.71 36.71 0 0 0-.05 5.45 1.44 1.44 0 1 0 2.84-.39M32.63 465.9a8 8 0 0 0-5.71 2.1 32.75 32.75 0 0 0-.87-7.32.73.73 0 0 0-1.4 0c-1.42 5.83-.47 12.82-.45 18.79a1.29 1.29 0 0 0 2.54.28 8.11 8.11 0 0 0 5.84 1.11c3.59-.71 5-5 5-8.21s-1.42-6.43-4.95-6.75m.23 12.15c-1.82 1-4.35-.15-5.73-1.29a1.41 1.41 0 0 0-.34-.19c.05-1.91.12-3.88.14-5.85a30.74 30.74 0 0 1 2.92-2.08c2.56-1.22 4.73 0 5.1 2.87.24 1.94-.08 5.41-2.09 6.54m20.35-10.7c-2.26-3.47-7.6-1.62-10.51-.18a1.17 1.17 0 0 0-.59 1v.2a1 1 0 0 0 1 1 14.93 14.93 0 0 0 3.16-.9c2.29-.59 5.1-.66 5.2 2.52v2.19c-1.72-1.22-4.76-1.12-6.57-.86-2.35.35-4.32 1.84-3.7 4.47 1.15 4.85 6.43 4.93 10 2.69 0 .4.05.8.09 1.19.15 1.21 2.08 1.77 2.36.32a52.34 52.34 0 0 0 .38-7.72c.03-1.91.3-4.2-.82-5.92m-9.46 9.13c-.62-2.88 5.11-1.51 7.57-1.55 0 .37 0 .74-.08 1.11a13.66 13.66 0 0 1-2.59 2c-1.65.78-4.43.63-4.9-1.56m25.64-8.66c-1-2.41-4.53-3-6.89-2.52-2.11.4-5.35 2.57-4.88 5.12.43 2.3 4 3.59 5.93 4.06 1.59.4 5.44.85 3.42 3.09s-5.37 1.85-7.41-.07c-1.17-1.11-3 .66-1.77 1.77a7.82 7.82 0 0 0 7.86 2.05c2-.62 5-2.65 4.86-5-.15-2.82-3.79-3.59-5.93-4-1.42-.3-4.91-.9-4.16-3.12.93-2.78 6.14-1.35 7.59-.26a1 1 0 0 0 1.38-1.06Zm16.31 9.45a7.14 7.14 0 0 1-6.31 1 4.84 4.84 0 0 1-3.58-3.5c3.45.33 7.28-.39 10.63-.6a1.37 1.37 0 0 0 1.3-1.71c-.62-3.33-2.88-6.44-6.44-6.85a7.48 7.48 0 0 0-7.87 5.16c-2.76 8.25 7.31 13.39 13.6 8.81 1.35-1 .17-3.18-1.33-2.31m-4.76-9a4.66 4.66 0 0 1 3.73 3.26 48.64 48.64 0 0 0-8.89.71 4.77 4.77 0 0 1 5.16-3.97m10.96-7.94c-1.05 2.13-.32 5.74-.28 8.06q.12 5.85.35 11.7c.07 1.81 2.87 1.83 2.83 0-.14-6.29-.07-12.77-.9-19a1.17 1.17 0 0 0-.82-1.09h-.23a.85.85 0 0 0-.95.38Zm9.83 13.25a48 48 0 0 0-.51-6.78c-.26-1.59-2.61-1.1-2.68.36-.13 2.3 0 4.62.13 6.92.07 2.06-.17 4.28.53 6.24a1.16 1.16 0 0 0 2.22 0c.73-2.1.38-4.54.31-6.74m-.73-10.85a1.34 1.34 0 0 0-.5-1.85 1.4 1.4 0 0 0-1.49-.26 1.49 1.49 0 0 0-.45 2.37 1.53 1.53 0 0 0 2.44-.26m14.35 3.77c-2.47-1.31-5.68.2-7.24 2.51a15.89 15.89 0 0 0-.37-2.26 1 1 0 0 0-1.94 0 34.09 34.09 0 0 0-.19 6.85 42 42 0 0 0 .36 6.92c.28 1.52 2.33 1 2.49-.34a44.09 44.09 0 0 0-.13-7.08c0-.62 0-1.23-.07-1.85a17.72 17.72 0 0 1 2.4-1.53c.8-.44 2.43-1.17 3.34-.9s1.33 1.73 1.5 2.4c.68 2.71.19 5.87.29 8.64.07 2 3.14 2 3.11 0-.04-3.96.72-11.11-3.55-13.36m20.16 10.31c-1.91 1.35-4.63 2.71-7 1.79a6.17 6.17 0 0 1-3.42-3.68c3.56.55 7.5-.05 10.95-.46a1.52 1.52 0 0 0 1.44-1.89c-.93-3.78-2.62-7.33-7-7.06a8.22 8.22 0 0 0-7.77 5.93c-1.16 3.41.49 6.65 3.24 8.76 3.42 2.63 7.77 1.49 11.09-.75 1.64-1.1.07-3.77-1.53-2.64m-5.84-8.53c2.53-.26 3.72 1.34 4.43 3.34-3 .17-6.07.1-9 .51a5.34 5.34 0 0 1 4.57-3.85"/><path d="M123.84 523.77c-.46-2.86-3.87-1.79-5.35-.6a8.52 8.52 0 0 0-3 7.76c2.36 14.81 1.7 30.06 1.44 45-.14 7.91-.3 15.81-.54 23.72-.12 3.67.18 8.66-.26 12.53-5.17 1.5-12.13.95-16.86 1.11-7.64.24-15.3.26-23 .1-16.67-.39-34.01-.39-50.52-3.31-4.53-.8-9.49 10-4.13 11 15.3 2.72 31.2 2.63 46.68 3.2a312.71 312.71 0 0 0 38.36-.63c5.5-.48 12.5-.63 15.7-6 2.39-3.95 2.15-9.21 2.36-13.66.59-12.56.76-25.14 1-37.71.19-14.15.35-28.46-1.88-42.51M221.12 535c-1-7.07-9.28.19-8.65 4.81a106.63 106.63 0 0 1 .8 20.6c-.19 3.47-.49 6.93-.84 10.39q-.3 2.93-.63 5.85c0 .1 0 .25-.08.44-4.5.52-9.39.24-13.69.34q-9.93.23-19.86.15c-6.23 0-12.47-.15-18.7-.41-6.65-.28-13.27-1.2-19.91-.59-4.46.41-8.27 11.37-2 10.8 5.13-.48 10.38.4 15.51.66 4.65.23 9.31.35 14 .43 10.5.18 21 .15 31.51-.19 4.07-.13 8.2-.18 12.25-.62 5.66-.62 8.38-4.82 9.13-10.23 1.87-14.05 3.04-28.43 1.16-42.43m139.48-23.55-1.44-.07c-4.24-.21-8.5 8.8-5.32 10.65-1.38 12.35-1.1 25.06-1.12 37.42 0 7.92.07 15.83.33 23.74.11 3.18.24 6.35.45 9.52.08 1.15.16 2.31.28 3.47v.38c-2.13.16-4.44 0-6.24 0-3.13 0-6.26-.1-9.39-.18q-6.48-.15-12.95-.22c-10-.13-19.92-.16-29.88-.17q-29.18 0-58.35.32c-4.67.05-9.23 11-4.13 11 32.37-.35 64.76-.64 97.12 0 3.84.08 7.68.22 11.52.26 4.59 0 10.72.58 15-1.35 6.81-3 6.25-10.31 5.75-16.42-1-12.05-.93-24.23-.9-36.31 0-12.39-.4-25.25 1.37-37.55.3-1.65.09-4.38-2.1-4.49m118.75 11.21c0-2.64-2.17-3.64-4.41-2.54-2.49 1.21-4.28 4.64-4.24 7.34.26 20.95-.21 41.95-.8 62.89-.15 5.23-.32 10.46-.57 15.69-.09 2-.19 3.89-.32 5.83 0 .39-.09.79-.13 1.2-3.35.63-10.46 1.51-11.11 1.51a85.2 85.2 0 0 1-12-1.05 188.83 188.83 0 0 0-25.79-2.22c-6.36 0-12.65.71-19 1.28-3.56.32-7.13.5-10.71.51-2.29 0-12.14.46-12.81-.6-2.78-4.39-10 5.09-7.45 9.06 2 3.16 7.67 2.29 10.95 2.42 3.82.14 7.65.13 11.48-.08 6.3-.36 12.56-1.29 18.88-1.53a153 153 0 0 1 27.13 1.69c8.93 1.26 17.68 2.26 26.6.23 7.92-1.8 11.68-6.09 12.38-14.19.38-4.31.57-8.65.74-13 .52-13 .77-26 1-39 .12-11.83.33-23.64.18-35.44m-10.53 91.67c-.07-.02-.18-.41 0 0m1.74-1.71s.03-.02 0 0" opacity=".15"/><path fill="#f7941f" d="M118.94 519.79c-.13-1-3.32-3.1-4.68-3.61-.34-.13-92.65.25-93.47.61a9.37 9.37 0 0 0-2.37 2.21c-.7 1.11-.66 87.71-.66 87.71.1 1.56 0 6.56 6.32 8 2.3.52 88.88.49 91.85.59s3-3.36 3-4.63.13-89.86.01-90.88m95.9 9.52c-.11-1-2.66-2.35-3-2.42-.69-.14-77.31-1.1-78-.74a18.37 18.37 0 0 0-3.12 2.89c-.59 1.11-.88 43.46-.88 43.46.08 1.57 1.5 8.6 5.47 8.59 2 0 74.39-.34 76.31-.44 2.63-.15 3.39-2.91 3.44-4.19s-.12-46.13-.22-47.15m257.93-10.39c-.12-1-1.77-3.9-3.61-3.9-.82 0-93.78-.23-96.08-.45-3.6-.35-4.91 3.95-4.87 5.15 0 .78-.54 89.06-.44 90.62 0 .71 1.92 5.21 4.35 6 1.45.46 94.65.75 96.88.36.81-.14 3.72-2.4 3.67-5.1-.02-1.25.22-91.66.1-92.68M356 596.21c-.21 2-2.37 3.71-5.61 4.51-5.84 1.44-119.49.07-120.91-.62a6.61 6.61 0 0 1-2.36-2.75c-1.21-2.15-1.11-80.09-.94-83.13.07-1.37 2-5 3.3-5.67 5.05-2.75 121.66-2.48 122.78-1.81 2.62 1.56 3.5 6.16 3.61 8.64s.3 78.85.13 80.83"/><path fill="#fff" d="M471.76 518.53c-1.43-3.94-5.44-3.33-9.1-3.37a146.06 146.06 0 0 0-15.51.79c-8.85-.44-17.7-.8-26.55-.86-7.75-.05-15.45.69-23.18.79-7.57.09-15-1.26-22.61-.75-2.82.19-4.76 3.27-4.79 5.92-.39 30.23-.32 60.48-.19 90.72 0 5.28 6.5-.18 6.49-3.61-.12-28.29-.18-56.6.13-84.89 6 .1 11.88.91 17.88.84 7.73-.09 15.43-.83 23.17-.78 16.54.11 33.11 1.27 49.63 2 2.75.13 5.56-4.22 4.63-6.8M354 511.41c-2.13-3.62-8.22-2.78-11.86-3.08-6.09-.49-12.17-1-18.26-1.48a86.3 86.3 0 0 0-15.91-.21c-3.66.38-7.22 1.36-10.9 1.49a210.88 210.88 0 0 1-33.3-1.13q-8-1-16.06-1.47c-4.67-.27-10.52-1.28-15.07.18-6.67 2.13-7.22 9.48-7.3 15.37-.18 12.62.1 25.26.47 37.88.22 7.49.48 15 1 22.46.3 4.28-.33 12.81 4.77 14.1 2.72.68 4.77-3.94 4.8-5.92.23-16.87.4-33.74.84-50.61.11-3.87.21-7.74.4-11.61.19-4.26 1.21-7.11 1.72-11.49a7 7 0 0 0-.17-2.64c7.89.06 16 1.48 23.7 2.27 9.6 1 19.49.84 29.14.82 7.25 0 14.22-2 21.5-1.76 5.64.18 11.28.78 16.9 1.24l8.67.71c2 .16 8.25-.29 9.38 1.64 1.95 3.34 7.37-3.72 5.54-6.76" opacity=".25"/><path fill="#1e1e1e" d="M473.45 521.64c0-1 0-1.93-.05-2.89a.6.6 0 0 0 0-.44c-1.67-4.9-5-4.36-9.25-4.41q-10.92-.14-21.84-.22-26.61-.18-53.21-.31c-4 0-7.91-.09-11.87 0-4.24.1-8.63-.57-9.58 4.26a31.46 31.46 0 0 0-.41 5.48c-.2 14.56-.22 29.12-.33 43.69-.11 13.78-.54 27.6-.34 41.37 0 2.84-.38 5.3 1.89 7.12a11.14 11.14 0 0 0 6.76 2.41c6 .25 12.08.11 18.1.16q26.25.23 52.49.43c5.31 0 10.58-.11 15.89-.27 6.29-.2 12.13.4 12.17-7.18.13-29.72-.09-59.47-.42-89.2m-1.56 28.92c-.08 16.61-.21 33.22-.25 49.83 0 3.65.21 7.38 0 11-.14 2.09-.06 2.81-2.26 3.68-2.47 1-5.63.61-8.23.69-3.07.09-6.13.22-9.19.29-13.41.3-26.89-.23-40.3-.33l-24.93-.2c-4.05 0-8.59.51-12.6-.11-6.3-1-5.27-7.53-5.25-12.38q0-10.12.11-20.24.17-24.7.31-49.41c0-3.74 0-7.5.07-11.24a14.91 14.91 0 0 1 .33-4c1.16-3.47 6.2-2.74 9.37-2.78h3.16c28.27.12 56.56.44 84.83.33 2.57 0 3.6-.56 5 3 .67 10.54-.12 21.36-.17 31.87M357 553.15v-24.31c0-6.05 1.64-13.78-.36-19.31-1.76-4.84-8.09-4.1-12.38-4.17-6.74-.12-13.48-.08-20.22-.05q-27.68.09-55.34.45l-17.51.21-3.19.03-11.12.24c-2.64.06-5.63-.14-8.05 1.13-4.88 2.54-3.72 9.33-3.7 13.93q.06 12.64.17 25.28.15 21.76.32 43.53c0 2.53-.37 7.69 1.46 9.78.94 1.07 2.43 1.15 3.79 1.32 4 .47 8 .37 12 .51 4.4.14 8.79.13 13.2.13h52.25c13.56 0 28.32 1.24 41.77-.49 5.17-.67 6.6-1.34 6.65-6.64a.61.61 0 0 0 0-.13c1.04-13.67.18-27.74.26-41.44m-25.28 46.72h-16.33l-50-.05h-16.33c-1.41 0-2.8 0-4.21-.07-3.82-.13-7.66-.14-11.48-.4-1.6-.1-3.45.09-4.53-1.11s-1-3.38-1.07-4.88c-.92-12.07-.21-24.45-.28-36.54q-.08-13-.14-25.95c0-5.22-.58-10.8 0-16 .84-7.63 8.78-6.3 14.33-6.41 2.69-.05 5.38-.12 8.06-.16l13.46-.15q25-.28 50.08-.47c11.6-.08 23.34-.57 34.93.1a11.05 11.05 0 0 1 3 .2c1.11.5 3.47 4.16 3.7 5.22a12.61 12.61 0 0 1 0 2.13c0 2.11-.12 4.2-.14 6.3 0 1.34 0 2.69.05 4q.09 9.39.16 18.8c.13 15.56.32 31.14.3 46.71v3.43a.66.66 0 0 0 0 .15c-.38 7.99-17.81 5.17-23.6 5.15Z"/><path fill="#fff" d="M213.39 528.23c-19.51.11-39.17-.05-58.63-1.53-6.13-.46-13.23-1.37-19.06 1.14s-5.34 7.72-5.16 13.14c.42 13.22-4.83 26.91 3.14 38.93 2.47 3.72 6.25-4 5.92-6.08a88.34 88.34 0 0 1-.95-19.43c.18-2.8.72-5.57.83-8.38.13-3-1.72-7.38-.91-10.14a7.91 7.91 0 0 0 .23-1c.45-.09.81-.18.95-.19a50.36 50.36 0 0 1 9.27.07c3.78.28 7.54.57 11.32.75 16.62.8 33.31 1.09 49.95 1 3.51-.07 6.94-8.3 3.1-8.28" opacity=".25"/><path fill="#1e1e1e" d="M216.08 562.86c-.2-11.26 0-22.63-.7-33.87a.74.74 0 0 0 0-.39c-.71-2.39-3-2.31-5-2.39-4.23-.18-8.47-.2-12.7-.28-12.53-.24-25-.39-37.58-.56-7-.09-14.16-.57-21.18-.19-2.26.12-5.79.08-7.72 1.42s-1.59 3.89-1.77 6.16c-.26 3.29-.19 6.61-.24 9.91-.14 9.76-1.29 20.07-.44 29.8.38 4.38 1.9 9 6.79 9.67 2.84.38 6 0 8.87 0 22.12 0 44.38.59 66.49-.31 7.99-.3 5.28-13.83 5.18-18.97m-3.7 16.7c-1.57.87-5.75.12-7.49.14-4.54 0-9.07.07-13.6.09q-17.78.08-35.53.09h-13.64c-2.05 0-4.72.45-6.73 0-4.76-1.1-4.43-7.69-4.38-11.6.05-5.12.12-10.23.18-15.35l.18-15c0-3.38-.74-8.78 2.71-10.09 5.13-2 13.57-.57 18.85-.5l37.68.45 15.74.17c1.71 0 6.93-.81 7.6 1 .52 8.12.09 16.4.11 24.53v16c.05 2.51.94 8.6-1.68 10.07"/><path fill="#fff" d="M115.47 517.83c-15.17-1.11-30.61-.69-45.8-.44-7.35.12-14.67.65-22 1.22-.1-.94-.58-1.59-1.63-1.53-1.36.08-2.77.19-4.19.32a75.26 75.26 0 0 1-10.85-.29 3.64 3.64 0 0 0-2.6 1.28l-5.23-.61c-2.93-.35-7 6.33-3.8 8 .08.3.15.61.23.91a4.12 4.12 0 0 0-.22 4.55 25.8 25.8 0 0 0-.66 4.45c-.47 7-.36 14.15-.39 21.2-.07 17.29-.75 35 .83 52.21.36 3.94 4.34 1.79 5.59-.45 2.24-4 1.84-9.71 2-14.18.27-7.44.31-14.89.29-22.33-.05-14.64-1.43-29.44 1.16-43.95a40 40 0 0 1 5.73-.56l5.11.6a3.48 3.48 0 0 0 2.55-1.15q5.27-.44 10.55-.8c6.16-.43 12.28-.65 18.45-.72 13.85-.15 27.9-.52 41.73.49 3.54.26 7.1-7.94 3.15-8.22" opacity=".25"/><path fill="#1e1e1e" d="M120.13 566.55c-.07-14.62-.17-29.24-.42-43.85 0-.88 0-1.76-.06-2.64a.61.61 0 0 0 0-.46c-2.11-5.66-9.4-3.88-14.32-3.9H39.04c-4.2 0-8.4-.06-12.61.12-2.45.1-7-.45-8.56 1.94-1.21 1.82-.6 5.14-.6 7.22 0 13.37-.21 26.74-.32 40.11-.11 13.58-.49 27.2-.35 40.79 0 2.47-.25 5.28 1.07 7.43 1.75 2.86 4.33 2.56 7.31 2.58 6.92.06 13.85.19 20.77.28 13.17.17 26.31.31 39.46.22 7.61 0 15.2.11 22.79.13 2.57 0 9.69.53 11.25-2.08.46-.79.32-2.38.38-3.25 1.05-14.87.58-29.83.5-44.64m-1.87-17.73c0 16.35-.15 32.7-.43 49-.07 4.36.78 10.25-.5 14.47-.08.28.06 1-.15 1.23-.78.85-7.39.61-9.13.61-3.72 0-7.44-.14-11.16-.18-10.86-.09-21.72.18-32.58 0l-24.9-.3c-4.88-.06-10.51.67-15.33-.2-6.34-1.15-5.19-8.44-5.16-13.44q0-10.22.12-20.42l.3-46.32c0-3 .06-6 .07-9 0-2.06-.66-5.05 1.36-6.1 1.78-.93 5.49-.43 7.48-.49 1.27 0 2.53-.06 3.81-.06 24.65-.07 49.31-.05 74-.11 3.49 0 10.57-1.45 12.19 2.41.68 9.6.04 19.39.01 28.9m272.43 2.23c-1.55.82-1.56-5.36-1.56-5.9v-1a10 10 0 0 0 1.44.06.79.79 0 0 0 .21-1.54 7.1 7.1 0 0 0-1.56-.29 6.84 6.84 0 0 0-.21-2 .57.57 0 0 0-1-.13 7.47 7.47 0 0 0-.67 2.2 6.09 6.09 0 0 0-1.58.4.68.68 0 0 0 .16 1.22 6.59 6.59 0 0 0 1.25.06 26 26 0 0 0 .6 6.25c.38 1.75 2.23 3.75 3.9 1.95a.8.8 0 0 0-.98-1.28m8.12-8.82c-2.79 0-5.39 1.11-6.15 3.92-.71 2.62.51 4.75 2.83 6s5 1 6.48-1.17c.51-.78-.71-1.75-1.3-1-2 2.44-5.63 1-6.43-1.54 2.58 0 5.17-.14 7.75-.23a.87.87 0 0 0 .83-1.08 10.3 10.3 0 0 0-1.29-3.87 3.12 3.12 0 0 0-2.72-1.03m-4.56 4.09a4 4 0 0 1 4.24-2.4c1.68.2 2.17 1.29 2.47 2.61-2.28.08-4.56.15-6.83.3a3.14 3.14 0 0 1 .12-.51m14.62.97a18 18 0 0 0 3.13-3.91c.26-.53-.33-1.34-.9-.9a23.94 23.94 0 0 0-3.29 3.31c-.82-1.24-1.7-2.71-3-3.32-.35-.16-.86.11-.71.55a16.44 16.44 0 0 0 2.57 4.05 13.55 13.55 0 0 0-3.34 4.55c-.33.92 1 1.34 1.49.63a38.54 38.54 0 0 1 2.88-3.65 45.84 45.84 0 0 0 2.95 4.2c.62.73 1.73-.21 1.3-1a44.61 44.61 0 0 0-3.08-4.51m9.27 3.8c-1.43 1-1.47-2-1.51-2.5-.07-1-.11-2-.15-3.05v-1.31a6.35 6.35 0 0 0 1.57 0c.87-.12.61-1.27 0-1.53a5.25 5.25 0 0 0-1.63-.31 7.44 7.44 0 0 0-.36-1.82.52.52 0 0 0-1 0 7.83 7.83 0 0 0-.36 1.82c-.52 0-1.7.2-1.3 1a1.38 1.38 0 0 0 1.27.62c0 .94.11 1.9.14 2.79.06 1.47-.09 3.25.5 4.62.72 1.65 2.79 2.29 3.92.72.46-.59-.45-1.51-1.09-1.05m11.51-.09c-2.76 1.26-1.91-4.31-1.84-5.61 0-.37.06-.75.09-1.14l1.23-.16c1.13-.16.67-1.94-.48-1.74-.21 0-.43.06-.65.08a5.87 5.87 0 0 0-.33-2.09.45.45 0 0 0-.82-.11 8.82 8.82 0 0 0-.65 2.32 9.33 9.33 0 0 0-1.59.19c-.71.16-.58 1.09 0 1.31a4.5 4.5 0 0 0 1.35.27c-.47 4.77.19 11.27 4.49 8a.79.79 0 0 0-.8-1.32m10.96-2.56a.87.87 0 0 0 .82-1.09c-.51-2.17-2.24-4.72-4.63-5.09s-4.63 1.89-5.14 4.11A5.42 5.42 0 0 0 434 552a5.58 5.58 0 0 0 6.53-.61c.89-.72-.4-2-1.28-1.28a3.71 3.71 0 0 1-6-1.71 43.06 43.06 0 0 0 7.36.04m-7.32-1.64c.35-1.73 2.1-3.35 3.93-2.53a4.65 4.65 0 0 1 2.19 2.48c-2.03.02-4.12-.12-6.12.05m17.71 4.31a20.56 20.56 0 0 0-2.9-3.85c.74-1 2.92-3.07 2.28-4.39a.65.65 0 0 0-1-.13 15.28 15.28 0 0 0-2.56 3.12c-.55-.6-1.1-1.2-1.66-1.79s-1.12-1.45-1.93-1.69a.73.73 0 0 0-.82.34v.08a.69.69 0 0 0 .59 1c-.49 0-.2 0 .1.45a14.6 14.6 0 0 0 1.09 1.27l1.59 1.8c-.2.25-.41.49-.62.71-1 1-3.09 2.21-2.85 3.87.14 1 1.44.72 1.71 0 .16-.89 1.63-1.74 2.23-2.33a9.43 9.43 0 0 0 .73-.83 16.2 16.2 0 0 1 2.36 3.33 1 1 0 0 0 1.66-.96m5.84-.33c-1.22-.07-1.7-.67-1.44-1.78v-.85c0-1-.06-2-.09-3v-.89h.85c.86.47 1.88-.55 1.11-1.35a2.37 2.37 0 0 0-2-.39 10.43 10.43 0 0 0-.32-2.23.64.64 0 0 0-1.22 0 12.87 12.87 0 0 0-.25 2.32 4.49 4.49 0 0 0-1.48.39c-.47.23-.26.86.13 1a4.67 4.67 0 0 0 1.36.26c0 .73.07 1.47.08 2.19 0 1.58-.26 3.64.52 5.1 1 1.81 3.75 2.15 4.3-.12a.84.84 0 0 0-1.55-.65m-305.67.62c-1 .5-1-3.65-1-4v-.63a5.89 5.89 0 0 0 .93 0 .59.59 0 0 0 .16-1.16 3.52 3.52 0 0 0-1-.16 4.25 4.25 0 0 0-.16-1.38.43.43 0 0 0-.78-.1 4.71 4.71 0 0 0-.5 1.51 3.38 3.38 0 0 0-1 .25.51.51 0 0 0 .12.92 3.55 3.55 0 0 0 .8 0 18 18 0 0 0 .42 4.25c.27 1.23 1.6 2.65 2.77 1.36a.61.61 0 0 0-.76-.86m8.39-2.66a7 7 0 0 0-.89-2.68 2.2 2.2 0 0 0-1.91-.71c-1.93 0-3.74.77-4.26 2.73a3.51 3.51 0 0 0 2 4.17 3.34 3.34 0 0 0 4.51-.83c.38-.58-.52-1.3-1-.75-1.31 1.61-3.73.69-4.31-1 1.75 0 3.5-.09 5.25-.15a.64.64 0 0 0 .61-.78m-3-2.13c1.1.14 1.43.83 1.63 1.69-1.52.05-3 .09-4.55.2a2.8 2.8 0 0 1 .06-.28 2.7 2.7 0 0 1 2.84-1.61Zm7.17 2.26a11.19 11.19 0 0 0 2.11-2.66c.19-.4-.24-1-.68-.68a14.69 14.69 0 0 0-2.23 2.23 5.46 5.46 0 0 0-2.15-2.26c-.26-.11-.52.2-.44.45a9.72 9.72 0 0 0 1.71 2.76 9 9 0 0 0-2.26 3.12c-.24.69.74 1 1.11.47.62-.86 1.26-1.65 1.94-2.43a26.73 26.73 0 0 0 2 2.81c.47.55 1.29-.15 1-.75a27.31 27.31 0 0 0-2.11-3.06m6.27 2.56c-.91.65-.93-1.35-1-1.67-.06-.69-.08-1.39-.11-2.09v-.85a3.3 3.3 0 0 0 1 0 .6.6 0 0 0 .14-1.09 4.19 4.19 0 0 0-1.23-.27 4.42 4.42 0 0 0-.26-1.21.39.39 0 0 0-.74 0 4.83 4.83 0 0 0-.26 1.21h-.35a.59.59 0 0 0-.54.41.4.4 0 0 0 0 .24v.06a.53.53 0 0 0 .39.39 3.62 3.62 0 0 0 .46.06c0 .65.08 1.3.11 1.9a9.18 9.18 0 0 0 .34 3.18 1.59 1.59 0 0 0 2.79.5c.41-.43-.27-1.11-.74-.77m7.88-.06c-1.83.81-1.21-3.12-1.16-4.11v-.42l.82-.11c.84-.12.5-1.46-.36-1.3h-.39a3.67 3.67 0 0 0-.28-1.45c-.1-.25-.46-.2-.58 0a3.86 3.86 0 0 0-.47 1.59 4.62 4.62 0 0 0-1.05.1c-.54.13-.43.8 0 1a3.1 3.1 0 0 0 1 .19v.38a16.19 16.19 0 0 0 0 3.81c.29 1.7 1.58 2.48 3.09 1.33a.6.6 0 0 0-.62-1.01m7.54-1.66a.65.65 0 0 0 .62-.81c-.36-1.52-1.57-3.28-3.23-3.53s-3.22 1.3-3.58 2.85a3.8 3.8 0 0 0 1.66 3.94 3.88 3.88 0 0 0 4.54-.43c.68-.54-.29-1.52-1-1a2.5 2.5 0 0 1-4-1.07 28.75 28.75 0 0 0 4.99.05m-2.35-2.87a3.14 3.14 0 0 1 1.44 1.6c-1.34 0-2.71-.05-4 .06.21-1.13 1.36-2.19 2.56-1.66m9.55 4.62a14 14 0 0 0-2-2.61c.52-.68 2-2.17 1.53-3a.48.48 0 0 0-.66-.16 8 8 0 0 0-1.84 2.14l-1.08-1.17c-.39-.41-.79-1-1.35-1.16a.55.55 0 0 0-.62.25v.06a.52.52 0 0 0 .45.77c-.24 0 .67 1.06.78 1.17l1 1.2-.27.32c-.71.76-2.28 1.62-2.09 2.84.1.65 1.16.62 1.28 0s1.12-1.19 1.53-1.6a5.7 5.7 0 0 0 .46-.52 10.94 10.94 0 0 1 1.57 2.25c.46.68 1.8.11 1.31-.78m3.98-.35c-.85 1.06-1-1.26-1-1.65 0-.59 0-1.17-.05-1.76v-.84h.53a.66.66 0 0 0 .8-1 1.6 1.6 0 0 0-1.37-.28 7.37 7.37 0 0 0-.24-1.48.47.47 0 0 0-.91 0 6.7 6.7 0 0 0-.18 1.55 2.68 2.68 0 0 0-1 .28.42.42 0 0 0 0 .71 3.23 3.23 0 0 0 1 .23v1.46c0 1.09-.17 2.52.36 3.52.68 1.28 2.69 1.53 3.06-.09.17-.6-.6-1.18-1-.65"/><path fill="#f4e200" d="M466.11 554.81c-52.51.58-105 .34-157.54.34q-106.86 0-213.73-.2c-23-.07-46.1-.32-69.15-.24a1.09 1.09 0 0 0 0 2.18c19.57.84 39.22.7 58.8.82q49.38.31 98.74.46 106.88.38 213.73.23c23.05 0 46.1 0 69.15-.25 2.15-.02 2.15-3.36 0-3.34"/><path fill="#1e1e1e" d="M249.59 549.93c-2.05 1.1-2.07-7.11-2.08-7.84 0-.43 0-.88.05-1.32a13.63 13.63 0 0 0 1.91.08 1 1 0 0 0 .28-2 9.52 9.52 0 0 0-2.07-.39 8.93 8.93 0 0 0-.28-2.68.76.76 0 0 0-1.38-.18 10.07 10.07 0 0 0-.9 2.93 8.33 8.33 0 0 0-2.12.47.9.9 0 0 0 .21 1.63 8.36 8.36 0 0 0 1.66.07 34 34 0 0 0 .79 8.3c.51 2.33 3 5 5.18 2.6a1.07 1.07 0 0 0-1.25-1.67m10.77-11.71c-3.69-.05-7.14 1.47-8.15 5.21-.94 3.47.68 6.3 3.76 8 2.92 1.58 6.65 1.36 8.59-1.57.68-1-.93-2.31-1.72-1.33-2.61 3.23-7.47 1.31-8.54-2 3.43 0 6.87-.18 10.3-.3a1.15 1.15 0 0 0 1.09-1.43 13.46 13.46 0 0 0-1.71-5.15c-.84-1.27-2.26-1.41-3.62-1.43m-6 5.43c.74-2.23 3.34-3.45 5.63-3.18s2.88 1.71 3.27 3.46c-3 .1-6 .2-9.06.4a4.44 4.44 0 0 1 .12-.68Zm19.36 1.29a23 23 0 0 0 4.16-5.2c.35-.69-.44-1.77-1.2-1.19a32.39 32.39 0 0 0-4.36 4.4c-1.09-1.65-2.26-3.61-4-4.41-.47-.22-1.15.14-.95.72.65 1.9 2.16 3.69 3.41 5.39-1.73 1.79-3.57 3.67-4.43 6-.44 1.22 1.32 1.77 2 .83a52 52 0 0 1 3.83-4.85 54.73 54.73 0 0 0 3.92 5.58c.82 1 2.29-.27 1.71-1.32a57.75 57.75 0 0 0-4.09-5.95M286 550c-1.91 1.38-2-2.67-2-3.32-.1-1.35-.14-2.7-.19-4v-1.75a8.15 8.15 0 0 0 2.09.06c1.16-.17.82-1.69 0-2a6.69 6.69 0 0 0-2.16-.41 9.89 9.89 0 0 0-.48-2.42.69.69 0 0 0-1.31 0 9.71 9.71 0 0 0-.48 2.42c-.69 0-2.26.26-1.73 1.34a1.81 1.81 0 0 0 1.68.81c0 1.26.15 2.53.2 3.71.08 2-.13 4.31.66 6.14 1 2.2 3.71 3 5.21 1 .61-.99-.61-2.21-1.49-1.58m15.31-.14c-3.66 1.67-2.52-5.72-2.43-7.44 0-.5.07-1 .12-1.52.56-.06 1.12-.14 1.63-.21 1.5-.22.89-2.58-.64-2.31-.28 0-.57.07-.86.1a7.63 7.63 0 0 0-.44-2.77.61.61 0 0 0-1.09-.14 11.41 11.41 0 0 0-.87 3.08 12.17 12.17 0 0 0-2.1.25c-.95.21-.77 1.45 0 1.74a6.47 6.47 0 0 0 1.79.36c-.62 6.33.25 15 6 10.69a1.06 1.06 0 0 0-1.11-1.83m14.56-3.4A1.15 1.15 0 0 0 317 545c-.68-2.88-3-6.26-6.15-6.75s-6.14 2.49-6.82 5.45a7.17 7.17 0 0 0 3.16 7.49 7.37 7.37 0 0 0 8.66-.8c1.19-1-.52-2.71-1.69-1.7a4.93 4.93 0 0 1-7.9-2.27 56.55 56.55 0 0 0 9.61.04m-9.72-2.17c.46-2.29 2.79-4.45 5.22-3.37a6.19 6.19 0 0 1 2.9 3.31c-2.69.02-5.46-.16-8.12.06M329.7 550a26.4 26.4 0 0 0-3.85-5.12c1-1.33 3.88-4.08 3-5.83a.86.86 0 0 0-1.34-.17 19.28 19.28 0 0 0-3.39 4.14l-2.21-2.38c-.73-.78-1.49-1.93-2.56-2.24a1 1 0 0 0-1.1.45v.1a.92.92 0 0 0 .79 1.37c-.65 0-.27 0 .13.6a19.31 19.31 0 0 0 1.45 1.69l2.11 2.39c-.27.33-.54.65-.83 1-1.32 1.36-4.09 2.92-3.78 5.13.19 1.28 1.92.95 2.28 0 .22-1.17 2.18-2.3 3-3.09a14.25 14.25 0 0 0 1-1.09 21.44 21.44 0 0 1 3.13 4.42 1.29 1.29 0 0 0 2.17-1.37m7.72-.43c-1.62-.1-2.25-.88-1.91-2.36v-1.13c-.06-1.32-.07-2.65-.11-4v-1.18h1.13a1.17 1.17 0 0 0 1.47-1.8c-.68-.71-1.73-.6-2.68-.52a13.3 13.3 0 0 0-.43-3 .84.84 0 0 0-1.61 0 15.05 15.05 0 0 0-.33 3.08 6.08 6.08 0 0 0-1.95.49c-.63.3-.35 1.13.18 1.34a6 6 0 0 0 1.8.34c0 1 .09 2 .11 2.91 0 2.1-.34 4.84.69 6.78 1.28 2.4 5 2.84 5.71-.17a1.11 1.11 0 0 0-2.07-.78m-300.18 1.06c-1.54.82-1.56-5.36-1.56-5.9v-1a10.11 10.11 0 0 0 1.45.06.79.79 0 0 0 .2-1.54 7 7 0 0 0-1.53-.25 6.84 6.84 0 0 0-.2-2 .57.57 0 0 0-1-.13 7.19 7.19 0 0 0-.68 2.2 6 6 0 0 0-1.57.4.67.67 0 0 0 .16 1.22 6.51 6.51 0 0 0 1.25.06 25.49 25.49 0 0 0 .59 6.25c.39 1.75 2.23 3.75 3.91 1.95a.81.81 0 0 0-1.02-1.32m8.12-8.82c-2.78 0-5.39 1.11-6.15 3.92-.7 2.62.52 4.75 2.84 6s5 1 6.47-1.17c.51-.78-.71-1.75-1.3-1-2 2.44-5.63 1-6.43-1.54 2.59 0 5.17-.14 7.75-.23a.87.87 0 0 0 .83-1.08 10 10 0 0 0-1.29-3.87 3.11 3.11 0 0 0-2.72-1.03m-4.55 4.09a4 4 0 0 1 4.24-2.4c1.68.2 2.17 1.29 2.46 2.61-2.27.08-4.55.15-6.82.3a3.14 3.14 0 0 1 .12-.51m14.61.97a17.7 17.7 0 0 0 3.13-3.87c.26-.53-.33-1.34-.9-.9a23.48 23.48 0 0 0-3.29 3.32c-.82-1.25-1.7-2.72-3-3.33-.35-.16-.86.11-.71.55a16.74 16.74 0 0 0 2.57 4 13.69 13.69 0 0 0-3.34 4.55c-.33.92 1 1.34 1.49.63a38.63 38.63 0 0 1 2.89-3.65 42.24 42.24 0 0 0 3 4.2c.62.73 1.73-.21 1.29-1a44.61 44.61 0 0 0-3.13-4.5m9.27 3.8c-1.43 1.05-1.47-2-1.5-2.5-.08-1-.11-2-.15-3v-1.31a5.91 5.91 0 0 0 1.57 0c.88-.12.61-1.27 0-1.53A5.19 5.19 0 0 0 63 542a7 7 0 0 0-.36-1.82.51.51 0 0 0-1 0 6.92 6.92 0 0 0-.36 1.82c-.52 0-1.71.2-1.31 1a1.38 1.38 0 0 0 1.27.62c0 .94.11 1.9.15 2.79.05 1.47-.1 3.25.5 4.62.71 1.66 2.79 2.29 3.92.72.44-.62-.48-1.54-1.12-1.08m11.51-.09c-2.76 1.26-1.9-4.31-1.83-5.61 0-.37 0-.75.08-1.14l1.23-.16c1.13-.16.67-1.94-.48-1.74-.21 0-.43.06-.65.08a5.66 5.66 0 0 0-.33-2.09.45.45 0 0 0-.82-.11 8.82 8.82 0 0 0-.65 2.32 9.33 9.33 0 0 0-1.59.19c-.71.16-.57 1.09 0 1.31a4.63 4.63 0 0 0 1.35.27c-.46 4.77.19 11.27 4.49 8.06a.8.8 0 0 0-.8-1.38M87.16 548a.86.86 0 0 0 .82-1.09c-.51-2.17-2.24-4.72-4.63-5.09s-4.63 1.89-5.14 4.11a5.43 5.43 0 0 0 2.39 5.65 5.57 5.57 0 0 0 6.52-.61c.9-.72-.39-2-1.28-1.28a3.72 3.72 0 0 1-6-1.71 43.06 43.06 0 0 0 7.32.02m-7.32-1.64c.35-1.73 2.11-3.35 3.93-2.53a4.65 4.65 0 0 1 2.23 2.5c-2.07.02-4.15-.12-6.16.05Zm17.74 4.33a20.14 20.14 0 0 0-2.9-3.85c.74-1 2.92-3.07 2.28-4.39a.65.65 0 0 0-1-.13 14.92 14.92 0 0 0-2.55 3.12c-.56-.6-1.11-1.2-1.67-1.79s-1.11-1.45-1.92-1.69a.75.75 0 0 0-.83.34v.08a.7.7 0 0 0 .59 1c-.49 0-.2 0 .1.45a14.72 14.72 0 0 0 1.1 1.27l1.58 1.8c-.2.25-.4.49-.62.72-1 1-3.08 2.2-2.84 3.86.13 1 1.44.72 1.71 0 .16-.89 1.64-1.74 2.24-2.33.26-.26.49-.55.73-.83a16.43 16.43 0 0 1 2.35 3.33 1 1 0 0 0 1.65-.96m5.81-.33c-1.21-.07-1.69-.67-1.44-1.78v-.85c0-1-.05-2-.08-3v-.89h.86a.88.88 0 0 0 1.1-1.35 2.34 2.34 0 0 0-2-.39 11.12 11.12 0 0 0-.33-2.23.63.63 0 0 0-1.21 0 11.29 11.29 0 0 0-.25 2.32 4.54 4.54 0 0 0-1.47.37c-.47.23-.26.86.13 1a4.36 4.36 0 0 0 1.36.26c0 .73.07 1.47.08 2.19 0 1.58-.25 3.64.52 5.1 1 1.81 3.75 2.15 4.31-.12a.84.84 0 0 0-1.58-.63"/></g></svg>