<svg xmlns="http://www.w3.org/2000/svg" width="32" height="32" fill="none"><path fill="#03A9F4" d="M16 32c8.837 0 16-7.163 16-16S24.837 0 16 0 0 7.163 0 16s7.163 16 16 16"/><path fill="#fff" d="M26.364 9.572c-.78.34-1.604.567-2.448.672a4.223 4.223 0 0 0 1.87-2.35 8.488 8.488 0 0 1-2.696 1.03 4.248 4.248 0 0 0-7.351 2.905c-.003.326.03.65.099.969a12.033 12.033 0 0 1-8.76-4.445 4.253 4.253 0 0 0 1.307 5.685 4.193 4.193 0 0 1-1.92-.525v.047a4.27 4.27 0 0 0 3.404 4.172 4.24 4.24 0 0 1-1.113.14c-.27.004-.541-.02-.807-.072a4.292 4.292 0 0 0 3.973 2.96 8.546 8.546 0 0 1-5.263 1.812 7.68 7.68 0 0 1-1.017-.059 11.956 11.956 0 0 0 6.526 1.908c7.822 0 12.097-6.478 12.097-12.093 0-.187 0-.368-.015-.55a8.454 8.454 0 0 0 2.114-2.206"/></svg>